<svg width="416" height="440" viewBox="0 0 416 440" fill="none" xmlns="http://www.w3.org/2000/svg">
<g opacity="0.5">
<path d="M-32.6198 473.031C-13.5722 471.954 0.996021 455.629 -0.0806776 436.569C-1.15738 417.509 -17.4713 402.931 -36.5188 404.008C-55.5664 405.086 -70.1346 421.41 -69.0579 440.47C-67.9812 459.531 -51.6673 474.109 -32.6198 473.031Z" stroke="url(#paint0_linear)" stroke-width="5.7317" stroke-linecap="round" stroke-linejoin="round"/>
<path d="M5.10735 457.478C15.5721 435.548 6.28943 409.281 -15.626 398.809C-37.5414 388.338 -63.7906 397.626 -74.2553 419.556C-84.72 441.486 -75.4374 467.753 -53.522 478.225C-31.6066 488.696 -5.35735 479.408 5.10735 457.478Z" stroke="url(#paint1_linear)" stroke-width="5.5976" stroke-linecap="round" stroke-linejoin="round"/>
<path d="M8.58958 469.824C-8.18369 493.05 -42.6369 497.768 -65.8475 481.71C-89.9647 465.016 -94.0447 429.723 -77.7247 407.223C-61.4048 384.632 -26.5889 377.555 -3.28771 395.338C19.1975 412.485 25.3628 446.598 8.58958 469.824Z" stroke="url(#paint2_linear)" stroke-width="5.4634" stroke-linecap="round" stroke-linejoin="round"/>
<path d="M16.2061 475.358C-3.4685 502.576 -44.2683 509.471 -71.3775 489.33C-98.0334 469.552 -104.924 428.725 -85.3401 401.688C-65.8469 374.742 -24.7751 368.482 2.24349 387.716C29.7154 407.313 35.8807 448.14 16.2061 475.358Z" stroke="url(#paint3_linear)" stroke-width="5.3293" stroke-linecap="round" stroke-linejoin="round"/>
<path d="M23.7315 480.893C0.43027 512.284 -45.0842 519.996 -76.9081 496.952C-108.732 473.907 -115.985 427.999 -92.956 396.245C-69.8361 364.309 -23.959 358.14 7.68356 380.186C39.4168 402.324 47.3048 449.139 23.7315 480.893Z" stroke="url(#paint4_linear)" stroke-width="5.1951" stroke-linecap="round" stroke-linejoin="round"/>
<path d="M31.3473 486.609C4.87277 521.992 -46.0817 530.792 -82.3482 504.573C-118.343 478.534 -126.503 426.729 -100.481 390.801C-73.6442 353.785 -24.1404 350.156 12.9421 373.11C51.0219 396.608 58.0032 450.953 31.3473 486.609Z" stroke="url(#paint5_linear)" stroke-width="5.061" stroke-linecap="round" stroke-linejoin="round"/>
<path d="M38.9632 492.052C9.49669 530.974 -47.7137 540.5 -87.8789 512.103C-128.316 483.524 -136.476 424.37 -108.097 385.176C-78.1776 343.805 -23.9592 342.172 17.838 366.305C37.8752 377.918 51.6565 390.529 55.1925 414.662C59.0005 439.975 54.5578 471.457 38.9632 492.052Z" stroke="url(#paint6_linear)" stroke-width="4.9268" stroke-linecap="round" stroke-linejoin="round"/>
<path d="M46.488 497.315C14.5735 540.138 -49.4369 550.662 -93.4101 519.633C-138.199 487.97 -146.994 423.01 -115.714 379.642C-81.5328 332.283 -25.229 337.817 22.4614 359.864C45.944 370.751 60.6319 379.824 64.6213 407.858C68.6106 436.8 64.0773 473.816 46.488 497.315Z" stroke="url(#paint7_linear)" stroke-width="4.7927" stroke-linecap="round" stroke-linejoin="round"/>
<path d="M54.1047 502.849C19.4702 550.662 -51.1589 562.365 -98.8494 527.254C-146.087 492.506 -158.78 422.011 -123.239 374.198C-106.828 352.061 -81.8948 334.006 -53.6069 333.099C-25.863 332.192 1.33691 345.438 26.8141 353.241C54.9207 361.769 69.8806 367.575 73.9606 400.328C78.2219 434.441 74.7766 474.27 54.1047 502.849Z" stroke="url(#paint8_linear)" stroke-width="4.6585" stroke-linecap="round" stroke-linejoin="round"/>
<path d="M61.7207 508.383C24.0941 560.369 -52.5189 572.98 -104.289 534.875C-155.697 497.133 -168.3 420.469 -130.764 368.755C-113.809 345.347 -85.4308 324.662 -55.4202 324.571C-25.047 324.48 1.97159 341.446 31.2568 346.436C43.2248 348.432 58.6381 346.89 68.7927 354.511C79.854 362.767 81.9392 380.005 83.4806 392.525C88.0139 430.63 84.9312 476.266 61.7207 508.383Z" stroke="url(#paint9_linear)" stroke-width="4.5244" stroke-linecap="round" stroke-linejoin="round"/>
<path d="M69.2459 513.827C28.2647 570.44 -53.335 583.414 -109.911 542.406C-166.396 501.488 -178.817 419.653 -138.471 363.221C-120.428 337.999 -89.6015 315.045 -57.3243 315.68C-24.9564 316.315 3.51279 336.91 35.518 339.45C47.1233 340.357 63.6245 337.001 74.5045 341.9C89.4644 348.614 91.1871 370.297 92.7284 384.36C97.5337 426.911 95.2671 477.99 69.2459 513.827Z" stroke="url(#paint10_linear)" stroke-width="4.3902" stroke-linecap="round" stroke-linejoin="round"/>
<path d="M76.8613 519.361C32.8881 580.057 -54.6956 594.029 -115.351 550.026C-176.007 506.024 -189.426 418.292 -145.997 357.686C-127.047 331.194 -93.3194 305.156 -59.0475 306.97C-24.5943 308.785 5.14423 331.92 40.0508 332.555C52.8347 332.827 72.6 326.386 84.9306 332.011C99.8905 338.815 100.797 362.586 102.248 376.376C107.144 423.463 105.602 479.623 76.8613 519.361Z" stroke="url(#paint11_linear)" stroke-width="4.2561" stroke-linecap="round" stroke-linejoin="round"/>
<path d="M84.4786 524.804C37.5135 589.674 -55.9635 604.553 -120.79 557.557C-185.616 510.56 -200.486 417.021 -153.52 352.152C-133.211 324.117 -97.2167 295.175 -60.5875 297.807C-23.6863 300.438 6.68691 326.113 44.7668 325.569C59.092 325.387 77.8599 317.676 92.0039 321.486C109.684 326.295 110.409 354.329 111.769 368.664C116.574 420.287 115.94 481.346 84.4786 524.804Z" stroke="url(#paint12_linear)" stroke-width="4.122" stroke-linecap="round" stroke-linejoin="round"/>
<path d="M92.0024 530.339C42.0453 599.382 -57.4156 615.259 -126.413 565.178C-195.41 515.188 -211.276 415.661 -161.228 346.618C-140.013 317.313 -100.754 285.015 -62.2209 288.462C-22.7811 292 8.22676 319.854 49.4799 318.856C64.2585 318.493 88.1038 307.968 102.157 312.958C119.565 319.128 119.565 347.071 120.925 362.132C126.093 417.566 125.912 483.524 92.0024 530.339Z" stroke="url(#paint13_linear)" stroke-width="3.9878" stroke-linecap="round" stroke-linejoin="round"/>
<path d="M99.6185 535.873C46.5787 609.09 -58.6849 625.874 -131.853 572.799C-205.02 519.724 -221.794 414.391 -168.754 341.174C-146.45 310.327 -104.29 275.488 -63.4902 279.027C-44.7223 280.66 -27.8583 290.821 -10.8131 297.898C10.2215 306.607 31.7094 312.414 54.6479 312.232C71.6932 312.051 91.4585 302.797 108.05 305.065C129.085 307.968 128.904 340.902 130.264 356.779C135.613 416.205 135.976 485.611 99.6185 535.873Z" stroke="url(#paint14_linear)" stroke-width="3.8537" stroke-linecap="round" stroke-linejoin="round"/>
<path d="M107.234 541.317C51.2026 618.071 -60.0449 636.398 -137.293 580.329C-214.54 524.351 -232.311 412.939 -176.279 335.64C-152.887 303.341 -107.554 265.871 -64.6689 269.409C-45.9916 270.952 -29.853 280.569 -13.1705 287.918C10.0401 298.17 34.792 304.883 60.1786 305.428C78.4025 305.791 98.621 296.809 116.301 298.986C138.514 301.708 138.333 336.547 139.784 353.241C145.042 415.479 145.495 488.877 107.234 541.317Z" stroke="url(#paint15_linear)" stroke-width="3.7195" stroke-linecap="round" stroke-linejoin="round"/>
<path d="M114.76 546.851C56.0991 627.87 -61.7671 646.015 -142.823 587.95C-224.604 529.341 -242.284 411.034 -183.895 330.196C-158.599 295.176 -111.815 257.706 -66.0284 260.065C-45.2658 261.153 -27.3139 270.226 -8.81794 278.845C14.7553 289.914 39.8699 296.718 65.8911 298.623C85.1124 300.075 104.424 292.998 123.192 294.541C147.672 296.446 147.672 335.096 149.304 352.787C154.835 417.384 154.109 492.506 114.76 546.851Z" stroke="url(#paint16_linear)" stroke-width="3.5854" stroke-linecap="round" stroke-linejoin="round"/>
<path d="M122.376 552.385C60.7227 637.578 -63.1274 656.63 -148.354 595.571C-234.305 533.968 -252.892 409.4 -191.511 324.662C-164.13 286.92 -116.077 249.994 -67.2074 250.085C-45.1755 250.175 -25.0476 257.524 -5.55433 267.141C18.7442 279.117 44.9468 287.464 71.784 291.274C91.4586 294.087 112.221 288.19 131.261 291.365C156.466 295.629 157.373 334.097 159.096 353.604C164.989 420.106 162.632 496.679 122.376 552.385Z" stroke="url(#paint17_linear)" stroke-width="3.4512" stroke-linecap="round" stroke-linejoin="round"/>
<path d="M129.901 557.829C65.1651 647.285 -64.397 667.155 -153.885 603.102C-244.188 538.504 -263.409 407.949 -199.127 319.128C-169.57 278.301 -120.157 242.736 -68.2049 240.014C-16.1625 237.202 28.6267 271.678 78.1304 283.563C98.1677 288.371 121.106 284.833 140.327 290.639C165.533 298.351 167.346 334.642 169.341 356.144C175.415 423.735 170.791 501.397 129.901 557.829Z" stroke="url(#paint18_linear)" stroke-width="3.3171" stroke-linecap="round" stroke-linejoin="round"/>
<path d="M137.518 563.363C70.4245 656.63 -66.663 677.951 -159.324 610.813C-251.894 543.585 -274.833 406.588 -206.652 313.684C-174.284 269.591 -124.145 235.931 -69.111 229.762C-11.5379 223.411 33.2513 257.071 84.6591 274.853C104.787 281.748 128.451 282.746 148.035 290.821C173.965 301.617 177.501 335.549 179.677 359.864C185.843 428.634 178.771 506.024 137.518 563.363Z" stroke="url(#paint19_linear)" stroke-width="3.1829" stroke-linecap="round" stroke-linejoin="round"/>
<path d="M145.134 568.807C74.5045 666.247 -67.3882 689.473 -164.764 618.343C-261.595 547.577 -284.806 405.59 -214.268 308.24C-180.086 261.062 -127.591 229.217 -70.1082 219.6C-43.4523 215.155 -17.3404 213.975 7.95548 224.59C36.606 236.566 61.5393 255.437 90.9151 265.962C111.224 273.311 134.526 281.385 153.838 291.184C181.309 305.065 187.656 336.638 190.104 364.672C196.179 433.806 186.749 511.377 145.134 568.807Z" stroke="url(#paint20_linear)" stroke-width="3.0488" stroke-linecap="round" stroke-linejoin="round"/>
<path d="M152.75 574.341C79.1291 675.955 -68.7476 700.088 -170.294 625.964C-271.296 552.204 -295.413 404.229 -221.883 302.706C-185.254 252.171 -131.489 222.594 -71.1956 209.439C-43.3611 203.36 -14.1665 197.826 13.124 208.894C43.0439 221.052 66.6171 245.185 96.809 257.342C118.841 266.233 142.414 279.842 162.27 293.361C188.563 311.234 197.993 339.268 200.622 369.843C206.697 439.068 194.094 517.183 152.75 574.341Z" stroke="url(#paint21_linear)" stroke-width="2.9146" stroke-linecap="round" stroke-linejoin="round"/>
<path d="M160.274 579.875C83.6609 685.572 -70.1997 710.703 -175.826 633.586C-280.908 556.74 -306.023 402.868 -229.5 297.172C-190.514 243.371 -135.207 215.881 -72.2851 199.459C-43.3626 191.929 -10.8134 181.405 18.5625 192.745C32.6158 198.189 43.3144 209.076 54.7384 218.602C69.517 231.032 84.7489 241.556 102.429 249.359C126.365 259.883 144.951 276.486 165.442 292.545C193.186 314.319 208.146 339.995 211.319 375.378C217.484 444.149 201.164 523.353 160.274 579.875Z" stroke="url(#paint22_linear)" stroke-width="2.7805" stroke-linecap="round" stroke-linejoin="round"/>
<path d="M167.891 585.319C88.2857 695.189 -71.4684 721.228 -181.265 641.116C-290.518 561.368 -316.63 401.507 -237.025 291.728C-195.772 234.752 -138.924 209.076 -73.4631 189.842C-43.6339 181.042 -7.18599 164.983 23.8219 177.141C39.4165 183.219 49.9338 197.191 61.5391 208.623C75.3204 222.232 89.9176 233.754 107.507 242.01C123.827 249.631 137.517 256.799 149.304 270.68C156.285 278.845 163.267 286.375 171.245 293.724C198.083 318.402 218.754 342.898 222.018 380.731C228.002 449.048 208.237 529.613 167.891 585.319Z" stroke="url(#paint23_linear)" stroke-width="2.6463" stroke-linecap="round" stroke-linejoin="round"/>
<path d="M175.506 590.853C92.5467 705.35 -72.2846 731.842 -186.796 648.737C-301.217 565.722 -327.057 400.691 -244.641 286.194C-224.513 258.25 -198.401 234.207 -168.844 216.334C-139.015 198.28 -107.644 190.568 -74.8232 180.225C-45.266 170.88 -4.9195 149.197 26.8137 160.81C44.4936 167.251 55.0109 185.034 66.7975 198.733C79.8535 213.794 93.9974 226.496 111.949 235.205C127.544 242.826 142.051 248.996 152.84 263.331C160.456 273.401 165.986 283.926 174.872 293.089C201.618 320.851 228.546 344.712 232.354 385.449C238.791 453.221 215.309 535.964 175.506 590.853Z" stroke="url(#paint24_linear)" stroke-width="2.5122" stroke-linecap="round" stroke-linejoin="round"/>
<path d="M183.031 596.297C97.0791 714.876 -73.7362 742.367 -192.328 656.267C-310.829 570.258 -338.3 399.33 -252.258 280.659C-231.224 251.627 -204.386 226.859 -173.741 208.26C-142.824 189.57 -110.184 181.949 -76.2748 170.971C-44.995 160.81 1.87952 131.868 35.3354 148.199C50.4766 155.547 59.9059 173.965 69.4259 186.939C82.3005 204.54 96.4445 219.419 116.21 229.217C132.076 237.02 147.308 243.552 157.735 258.885C165.26 270.044 169.34 281.567 178.407 291.909C204.881 322.031 238.972 346.255 242.78 389.259C245.953 424.824 236.614 460.752 228.273 495.046C219.388 531.7 205.244 565.722 183.031 596.297Z" stroke="url(#paint25_linear)" stroke-width="2.378" stroke-linecap="round" stroke-linejoin="round"/>
<path d="M190.647 601.831C101.613 724.584 -75.005 752.982 -197.767 663.888C-320.439 574.886 -348.817 398.06 -259.783 275.216C-238.476 245.73 -211.367 220.508 -180.45 201.455C-147.81 181.314 -113.629 173.602 -77.8156 161.989C-45.5384 151.556 2.42403 119.348 37.0586 134.862C54.4665 142.664 63.8051 164.257 73.5971 179.318C85.837 198.008 99.6183 214.429 119.928 223.865C135.069 230.941 151.298 237.383 160.909 251.99C169.431 264.873 172.242 279.026 182.397 291.275C208.69 323.029 248.583 347.162 252.754 391.709C256.108 427.818 245.319 464.471 236.978 499.22C228.092 536.236 213.042 570.894 190.647 601.831Z" stroke="url(#paint26_linear)" stroke-width="2.2439" stroke-linecap="round" stroke-linejoin="round"/>
<path d="M198.264 607.366C106.328 734.292 -76.3643 763.597 -203.297 671.509C-330.139 579.513 -359.424 396.699 -267.398 269.682C-244.46 238.018 -215.174 211.072 -181.537 191.112C-148.988 171.878 -115.169 163.985 -79.4469 153.189C-46.3537 143.209 4.7821 106.555 40.3233 123.43C58.0032 131.777 66.3445 153.37 75.4112 169.247C87.2884 189.933 101.432 208.623 123.646 218.693C139.512 225.861 157.101 229.762 165.987 246.274C172.787 258.976 174.147 272.948 182.669 285.105C208.147 321.214 257.832 344.259 262.546 392.253C266.082 428.634 254.205 466.195 246.136 501.397C237.25 539.502 221.293 575.611 198.264 607.366Z" stroke="url(#paint27_linear)" stroke-width="2.1098" stroke-linecap="round" stroke-linejoin="round"/>
<path d="M205.79 612.809C110.862 743.909 -77.8146 774.121 -208.827 679.04C-339.75 584.049 -369.941 395.338 -275.014 264.238C-251.35 231.577 -221.067 203.633 -186.342 183.129C-152.796 163.259 -117.889 154.822 -80.8972 144.298C-45.5374 134.227 3.87577 96.394 41.9556 114.086C60.8142 122.886 68.7022 145.023 77.9502 162.171C89.3741 183.582 103.881 205.266 127.273 213.25C142.686 218.603 161.726 220.689 170.158 236.929C178.499 252.897 176.776 269.137 187.928 284.652C213.95 320.579 266.264 343.352 272.429 391.074C277.235 428.181 263.363 467.647 255.203 503.575C246.318 542.859 229.544 580.148 205.79 612.809Z" stroke="url(#paint28_linear)" stroke-width="1.9756" stroke-linecap="round" stroke-linejoin="round"/>
<path d="M213.405 618.344C115.485 753.617 -79.0848 784.736 -214.268 686.661C-349.452 588.676 -380.55 393.977 -282.54 258.704C-258.513 225.589 -228.05 197.463 -193.052 176.233C-157.783 154.822 -121.335 146.294 -82.2582 135.316C-44.7223 124.791 3.33081 84.8717 43.5867 106.192C85.8372 128.602 82.2105 194.651 131.805 206.717C146.856 210.347 167.346 210.347 175.687 226.405C183.847 242.101 179.405 260.79 188.925 276.577C213.858 318.402 275.783 337.908 283.762 389.804C289.564 427.274 272.519 469.28 264.45 505.571C255.293 546.216 237.794 584.684 213.405 618.344Z" stroke="url(#paint29_linear)" stroke-width="1.8415" stroke-linecap="round" stroke-linejoin="round"/>
<path d="M221.022 623.878C120.11 763.234 -80.4438 795.351 -219.798 694.282C-359.061 593.303 -391.067 392.616 -290.155 253.17C-264.587 217.786 -231.675 187.847 -194.049 165.8C-158.779 145.114 -122.694 136.858 -83.9798 126.152C-45.8999 115.719 -5.00941 77.2509 36.6064 95.0333C85.1129 115.719 81.5769 191.566 136.702 198.915C154.382 201.274 177.139 199.097 184.12 219.964C190.195 238.109 183.939 255.982 194.003 273.492C219.208 317.132 286.392 335.64 295.912 388.987C299.357 408.221 294.733 427.092 289.293 445.419C282.947 466.921 277.96 488.061 272.973 509.835C263.635 550.843 245.683 589.765 221.022 623.878Z" stroke="url(#paint30_linear)" stroke-width="1.7073" stroke-linecap="round" stroke-linejoin="round"/>
<path d="M228.637 629.322C124.642 772.851 -81.8954 805.875 -225.239 701.903C-368.673 597.839 -401.675 391.255 -297.772 247.726C-271.841 211.979 -238.748 181.586 -200.85 158.995C-164.22 137.221 -126.413 127.604 -85.6127 116.989C-46.9889 106.918 -7.09577 63.9137 34.9734 87.3212C80.9412 112.906 86.1999 187.937 142.685 189.842C159.821 190.387 184.663 185.85 192.098 206.354C199.714 227.131 189.106 249.722 200.621 270.044C226.189 315.408 298.722 333.916 308.876 388.08C312.684 408.493 306.61 427.818 299.9 446.961C292.556 467.919 287.388 488.242 282.492 509.835C272.972 552.93 254.386 593.666 228.637 629.322Z" stroke="url(#paint31_linear)" stroke-width="1.5732" stroke-linecap="round" stroke-linejoin="round"/>
<path d="M236.163 634.856C129.176 782.014 -83.2548 816.49 -230.769 709.433C-378.283 602.466 -412.283 389.803 -305.296 242.191C-279.547 206.627 -246.907 176.233 -209.553 153.279C-170.657 129.418 -130.855 118.894 -87.2441 107.825C-46.7163 97.4826 -14.7111 53.0266 30.1687 78.8837C77.1339 106.011 89.5552 182.675 149.395 179.499C165.624 178.592 193.459 171.788 201.437 191.657C210.413 214.157 196.541 240.377 207.059 263.059C218.12 287.01 243.688 305.065 263.634 321.123C285.304 338.543 316.765 358.049 322.84 387.354C327.191 408.584 318.76 429.36 310.781 448.594C302.349 469.098 296.909 488.514 292.194 510.107C282.402 554.926 263.09 597.839 236.163 634.856Z" stroke="url(#paint32_linear)" stroke-width="1.439" stroke-linecap="round" stroke-linejoin="round"/>
<path d="M243.779 640.39C133.71 791.631 -84.5238 827.105 -236.299 717.054C-387.984 607.094 -422.89 388.533 -312.912 236.657C-285.078 198.28 -249.446 165.618 -208.555 141.757C-170.113 119.348 -130.945 110.275 -88.7851 98.7529C-49.6173 88.1379 -21.8734 43.2283 22.2811 68.541C49.2997 84.0552 67.8863 112.09 87.0169 135.769C107.326 160.991 124.462 172.151 156.739 167.977C174.238 165.709 204.158 156.364 212.408 178.502C221.656 203.088 206.968 231.939 215.491 257.524C224.195 283.654 249.944 302.071 270.797 318.311C293.283 335.821 330.093 356.325 336.803 386.628C341.699 408.493 331 430.086 321.843 449.229C311.869 470.097 306.157 489.784 301.261 512.194C291.197 558.283 271.341 602.376 243.779 640.39Z" stroke="url(#paint33_linear)" stroke-width="1.3049" stroke-linecap="round" stroke-linejoin="round"/>
<path d="M251.394 645.834C138.787 801.43 -86.247 836.632 -241.74 724.675C-398.048 612.084 -432.774 386.537 -320.529 231.213C-292.966 193.018 -257.697 160.447 -217.351 136.132C-176.551 111.454 -135.479 101.747 -90.327 89.5893C-71.6498 84.5994 -60.6791 73.0771 -45.8099 62.0992C-23.8686 45.8591 0.429959 48.4902 22.3712 63.9137C49.3898 82.8755 68.7923 110.638 90.9149 134.59C113.672 159.267 132.893 161.626 164.445 155.82C182.941 152.463 216.488 140.578 224.829 165.618C233.442 191.294 219.57 222.867 224.013 249.722C228.818 278.936 254.296 297.988 276.509 314.863C300.626 333.19 342.877 354.42 350.674 386.174C356.295 409.128 342.877 431.538 332.359 450.953C320.573 472.728 315.223 492.597 309.874 516.367C299.447 562.91 279.229 607.366 251.394 645.834Z" stroke="url(#paint34_linear)" stroke-width="1.1707" stroke-linecap="round" stroke-linejoin="round"/>
<path d="M258.92 651.368C143.411 811.137 -87.6977 847.156 -247.27 732.205C-407.75 616.71 -443.291 385.176 -328.145 225.679C-298.95 185.215 -261.324 151.011 -218.348 125.698C-177.911 101.928 -136.476 92.0388 -91.7777 80.3351C-70.9245 74.8008 -63.0365 61.0103 -46.7165 48.9437C-28.2206 35.3347 -6.55137 40.1432 11.8539 52.0284C44.7658 73.3492 67.1603 106.827 95.5389 133.229C120.2 156.273 142.595 150.83 173.059 142.936C193.549 137.674 229.544 124.247 237.613 152.826C245.864 181.858 230.904 215.79 233.714 245.73C236.797 277.937 262.546 296.899 287.026 314.863C310.781 332.283 356.476 354.42 364.908 385.539C370.983 407.949 355.751 430.812 344.871 448.957C331.362 471.548 325.015 491.236 319.485 516.73C308.786 565.087 287.842 611.357 258.92 651.368Z" stroke="url(#paint35_linear)" stroke-width="1.0366" stroke-linecap="round" stroke-linejoin="round"/>
<path d="M266.536 656.902C148.035 821.299 -89.057 857.771 -252.8 739.917C-417.36 621.338 -453.898 383.815 -335.669 220.145C-306.656 179.953 -269.483 145.658 -227.051 119.983C-184.438 94.2164 -140.737 83.0571 -93.2276 70.9904C-72.3744 65.7283 -67.0251 53.5709 -52.3371 39.962C-31.7559 20.9094 -5.64397 33.974 13.5773 48.4903C45.8545 72.805 69.2464 106.827 100.798 131.686C126.729 152.1 153.475 139.58 181.582 130.416C203.07 123.43 241.875 108.188 250.67 139.308C259.464 170.427 242.963 207.897 243.326 239.651C243.779 274.218 266.99 293.089 293.374 312.142C318.669 330.378 368.536 352.333 378.328 384.813C385.672 409.219 365.635 434.078 353.304 452.949C339.16 474.633 333.992 494.048 328.461 518.907C317.581 568.535 296.184 615.712 266.536 656.902Z" stroke="url(#paint36_linear)" stroke-width="0.9024" stroke-linecap="round" stroke-linejoin="round"/>
<path d="M274.151 662.346C152.659 830.916 -90.3272 868.295 -258.241 747.357C-426.971 625.874 -464.507 382.183 -343.286 214.701C-281.814 129.781 -195.137 84.0551 -94.6792 61.8271C-73.7352 57.2001 -69.6553 46.2222 -56.7807 31.2523C-39.4634 11.111 -13.6235 23.5406 4.41909 36.5144C40.5043 62.4622 66.2535 100.386 102.157 126.334C130.808 146.929 160.818 129.237 190.013 118.35C212.589 109.912 255.655 92.8556 263.453 128.239C271.159 162.897 254.477 201.455 253.117 236.204C251.757 270.68 271.613 289.279 298.359 308.422C315.676 320.851 333.9 332.011 351.218 344.259C365.271 354.239 384.855 366.668 390.748 383.816C398.999 407.949 378.327 432.445 365.362 450.772C348.77 474.361 343.42 495.046 337.255 522.627C326.012 572.98 304.162 620.703 274.151 662.346Z" stroke="url(#paint37_linear)" stroke-width="0.7683" stroke-linecap="round" stroke-linejoin="round"/>
<path d="M281.677 667.88C157.283 840.533 -91.7777 878.91 -263.772 754.978C-436.582 630.501 -475.024 380.821 -350.902 209.167C-288.614 123.067 -198.945 73.7122 -96.2203 52.5729C-74.7324 48.1273 -71.6498 38.7825 -59.9538 22.6331C-42.9992 -0.774294 -15.7086 15.7379 2.42463 29.3469C38.9631 56.6556 66.1631 95.668 103.79 121.434C134.072 142.211 168.797 118.531 197.992 106.737C222.834 96.666 267.533 80.3352 275.058 119.075C281.949 154.368 266.808 193.653 263.181 228.673C259.464 264.964 274.061 284.016 302.802 304.883C321.842 318.674 342.151 330.559 361.463 343.896C375.516 353.694 396.098 366.033 402.626 382.999C412.146 407.949 388.028 433.987 374.61 452.223C357.474 475.449 352.85 495.591 346.775 523.171C335.261 575.248 312.775 624.694 281.677 667.88Z" stroke="url(#paint38_linear)" stroke-width="0.6341" stroke-linecap="round" stroke-linejoin="round"/>
<path d="M289.293 673.415C161.725 850.331 -92.9564 889.525 -269.302 762.599C-446.464 635.037 -485.541 379.37 -358.427 203.633C-295.324 116.354 -202.572 63.4602 -97.671 43.3189C-74.3698 38.8733 -72.3751 29.8914 -60.1351 11.9275C-43.9965 -11.8428 -14.3487 8.66135 2.15259 21.726C38.6911 50.6677 68.883 97.029 110.499 118.894C141.144 134.953 178.317 106.827 205.789 95.3052C231.448 84.5995 275.149 70.5368 284.578 108.823C293.645 145.749 278.141 187.211 273.245 223.683C268.168 261.425 280.226 281.476 310.871 303.523C330.183 317.404 350.855 329.198 370.53 342.535C385.036 352.333 406.071 364.581 413.143 381.638C424.114 408.04 397.004 434.895 382.679 454.038C364.636 478.171 361.645 500.127 355.117 528.615C343.149 580.783 320.391 630.138 289.293 673.415Z" stroke="url(#paint39_linear)" stroke-width="0.5" stroke-linecap="round" stroke-linejoin="round"/>
</g>
<defs>
<linearGradient id="paint0_linear" x1="-65.8718" y1="418.423" x2="-3.26928" y2="458.581" gradientUnits="userSpaceOnUse">
<stop stop-color="#8900EF"/>
<stop offset="1" stop-color="#4EFEF6"/>
</linearGradient>
<linearGradient id="paint1_linear" x1="-75.4203" y1="460.759" x2="6.28624" y2="416.345" gradientUnits="userSpaceOnUse">
<stop stop-color="#8900EF"/>
<stop offset="1" stop-color="#4EFEF6"/>
</linearGradient>
<linearGradient id="paint2_linear" x1="-79.7659" y1="405.756" x2="10.6453" y2="471.235" gradientUnits="userSpaceOnUse">
<stop stop-color="#8900EF"/>
<stop offset="1" stop-color="#4EFEF6"/>
</linearGradient>
<linearGradient id="paint3_linear" x1="-87.3051" y1="400.288" x2="18.192" y2="476.693" gradientUnits="userSpaceOnUse">
<stop stop-color="#8900EF"/>
<stop offset="1" stop-color="#4EFEF6"/>
</linearGradient>
<linearGradient id="paint4_linear" x1="-94.8502" y1="394.83" x2="25.7618" y2="482.181" gradientUnits="userSpaceOnUse">
<stop stop-color="#8900EF"/>
<stop offset="1" stop-color="#4EFEF6"/>
</linearGradient>
<linearGradient id="paint5_linear" x1="-102.489" y1="389.507" x2="33.2895" y2="487.843" gradientUnits="userSpaceOnUse">
<stop stop-color="#8900EF"/>
<stop offset="1" stop-color="#4EFEF6"/>
</linearGradient>
<linearGradient id="paint6_linear" x1="-110.158" y1="384.225" x2="40.6725" y2="493.461" gradientUnits="userSpaceOnUse">
<stop stop-color="#8900EF"/>
<stop offset="1" stop-color="#4EFEF6"/>
</linearGradient>
<linearGradient id="paint7_linear" x1="-117.447" y1="378.419" x2="48.3763" y2="498.513" gradientUnits="userSpaceOnUse">
<stop stop-color="#8900EF"/>
<stop offset="1" stop-color="#4EFEF6"/>
</linearGradient>
<linearGradient id="paint8_linear" x1="-124.107" y1="371.737" x2="56.7919" y2="502.75" gradientUnits="userSpaceOnUse">
<stop stop-color="#8900EF"/>
<stop offset="1" stop-color="#4EFEF6"/>
</linearGradient>
<linearGradient id="paint9_linear" x1="-129.651" y1="363.538" x2="66.317" y2="505.465" gradientUnits="userSpaceOnUse">
<stop stop-color="#8900EF"/>
<stop offset="1" stop-color="#4EFEF6"/>
</linearGradient>
<linearGradient id="paint10_linear" x1="-135.826" y1="356.193" x2="75.2194" y2="509.039" gradientUnits="userSpaceOnUse">
<stop stop-color="#8900EF"/>
<stop offset="1" stop-color="#4EFEF6"/>
</linearGradient>
<linearGradient id="paint11_linear" x1="-141.992" y1="348.84" x2="84.1285" y2="512.604" gradientUnits="userSpaceOnUse">
<stop stop-color="#8900EF"/>
<stop offset="1" stop-color="#4EFEF6"/>
</linearGradient>
<linearGradient id="paint12_linear" x1="-148.386" y1="341.808" x2="92.8077" y2="516.488" gradientUnits="userSpaceOnUse">
<stop stop-color="#8900EF"/>
<stop offset="1" stop-color="#4EFEF6"/>
</linearGradient>
<linearGradient id="paint13_linear" x1="-154.962" y1="335.019" x2="101.307" y2="520.617" gradientUnits="userSpaceOnUse">
<stop stop-color="#8900EF"/>
<stop offset="1" stop-color="#4EFEF6"/>
</linearGradient>
<linearGradient id="paint14_linear" x1="-161.925" y1="328.766" x2="109.42" y2="525.283" gradientUnits="userSpaceOnUse">
<stop stop-color="#8900EF"/>
<stop offset="1" stop-color="#4EFEF6"/>
</linearGradient>
<linearGradient id="paint15_linear" x1="-169.317" y1="323.106" x2="117.104" y2="530.541" gradientUnits="userSpaceOnUse">
<stop stop-color="#8900EF"/>
<stop offset="1" stop-color="#4EFEF6"/>
</linearGradient>
<linearGradient id="paint16_linear" x1="-177.146" y1="318.05" x2="124.349" y2="536.403" gradientUnits="userSpaceOnUse">
<stop stop-color="#8900EF"/>
<stop offset="1" stop-color="#4EFEF6"/>
</linearGradient>
<linearGradient id="paint17_linear" x1="-185.476" y1="313.685" x2="131.094" y2="542.955" gradientUnits="userSpaceOnUse">
<stop stop-color="#8900EF"/>
<stop offset="1" stop-color="#4EFEF6"/>
</linearGradient>
<linearGradient id="paint18_linear" x1="-194.263" y1="309.95" x2="137.383" y2="550.138" gradientUnits="userSpaceOnUse">
<stop stop-color="#8900EF"/>
<stop offset="1" stop-color="#4EFEF6"/>
</linearGradient>
<linearGradient id="paint19_linear" x1="-203.441" y1="306.75" x2="143.285" y2="557.86" gradientUnits="userSpaceOnUse">
<stop stop-color="#8900EF"/>
<stop offset="1" stop-color="#4EFEF6"/>
</linearGradient>
<linearGradient id="paint20_linear" x1="-212.886" y1="303.924" x2="148.918" y2="565.954" gradientUnits="userSpaceOnUse">
<stop stop-color="#8900EF"/>
<stop offset="1" stop-color="#4EFEF6"/>
</linearGradient>
<linearGradient id="paint21_linear" x1="-222.445" y1="301.249" x2="154.441" y2="574.202" gradientUnits="userSpaceOnUse">
<stop stop-color="#8900EF"/>
<stop offset="1" stop-color="#4EFEF6"/>
</linearGradient>
<linearGradient id="paint22_linear" x1="-231.57" y1="297.973" x2="160.398" y2="581.849" gradientUnits="userSpaceOnUse">
<stop stop-color="#8900EF"/>
<stop offset="1" stop-color="#4EFEF6"/>
</linearGradient>
<linearGradient id="paint23_linear" x1="-238.786" y1="292.063" x2="168.265" y2="586.862" gradientUnits="userSpaceOnUse">
<stop stop-color="#8900EF"/>
<stop offset="1" stop-color="#4EFEF6"/>
</linearGradient>
<linearGradient id="paint24_linear" x1="-244.698" y1="284.35" x2="177.436" y2="590.073" gradientUnits="userSpaceOnUse">
<stop stop-color="#8900EF"/>
<stop offset="1" stop-color="#4EFEF6"/>
</linearGradient>
<linearGradient id="paint25_linear" x1="-250.844" y1="276.964" x2="186.371" y2="593.609" gradientUnits="userSpaceOnUse">
<stop stop-color="#8900EF"/>
<stop offset="1" stop-color="#4EFEF6"/>
</linearGradient>
<linearGradient id="paint26_linear" x1="-257.568" y1="270.374" x2="194.73" y2="597.942" gradientUnits="userSpaceOnUse">
<stop stop-color="#8900EF"/>
<stop offset="1" stop-color="#4EFEF6"/>
</linearGradient>
<linearGradient id="paint27_linear" x1="-264.64" y1="264.266" x2="202.74" y2="602.757" gradientUnits="userSpaceOnUse">
<stop stop-color="#8900EF"/>
<stop offset="1" stop-color="#4EFEF6"/>
</linearGradient>
<linearGradient id="paint28_linear" x1="-272.379" y1="259.076" x2="210.085" y2="608.492" gradientUnits="userSpaceOnUse">
<stop stop-color="#8900EF"/>
<stop offset="1" stop-color="#4EFEF6"/>
</linearGradient>
<linearGradient id="paint29_linear" x1="-280.599" y1="254.547" x2="216.95" y2="614.888" gradientUnits="userSpaceOnUse">
<stop stop-color="#8900EF"/>
<stop offset="1" stop-color="#4EFEF6"/>
</linearGradient>
<linearGradient id="paint30_linear" x1="-289.15" y1="250.478" x2="223.486" y2="621.744" gradientUnits="userSpaceOnUse">
<stop stop-color="#8900EF"/>
<stop offset="1" stop-color="#4EFEF6"/>
</linearGradient>
<linearGradient id="paint31_linear" x1="-298.184" y1="247.072" x2="229.537" y2="629.265" gradientUnits="userSpaceOnUse">
<stop stop-color="#8900EF"/>
<stop offset="1" stop-color="#4EFEF6"/>
</linearGradient>
<linearGradient id="paint32_linear" x1="-303.791" y1="238.936" x2="239.017" y2="632.055" gradientUnits="userSpaceOnUse">
<stop stop-color="#8900EF"/>
<stop offset="1" stop-color="#4EFEF6"/>
</linearGradient>
<linearGradient id="paint33_linear" x1="-308.961" y1="230.198" x2="248.933" y2="634.242" gradientUnits="userSpaceOnUse">
<stop stop-color="#8900EF"/>
<stop offset="1" stop-color="#4EFEF6"/>
</linearGradient>
<linearGradient id="paint34_linear" x1="-313.806" y1="221.009" x2="259.173" y2="635.979" gradientUnits="userSpaceOnUse">
<stop stop-color="#8900EF"/>
<stop offset="1" stop-color="#4EFEF6"/>
</linearGradient>
<linearGradient id="paint35_linear" x1="-318.521" y1="211.648" x2="269.537" y2="637.538" gradientUnits="userSpaceOnUse">
<stop stop-color="#8900EF"/>
<stop offset="1" stop-color="#4EFEF6"/>
</linearGradient>
<linearGradient id="paint36_linear" x1="-323.218" y1="202.265" x2="279.919" y2="639.076" gradientUnits="userSpaceOnUse">
<stop stop-color="#8900EF"/>
<stop offset="1" stop-color="#4EFEF6"/>
</linearGradient>
<linearGradient id="paint37_linear" x1="-328.218" y1="193.296" x2="289.999" y2="641.028" gradientUnits="userSpaceOnUse">
<stop stop-color="#8900EF"/>
<stop offset="1" stop-color="#4EFEF6"/>
</linearGradient>
<linearGradient id="paint38_linear" x1="-333.845" y1="185.196" x2="299.45" y2="643.849" gradientUnits="userSpaceOnUse">
<stop stop-color="#8900EF"/>
<stop offset="1" stop-color="#4EFEF6"/>
</linearGradient>
<linearGradient id="paint39_linear" x1="-340.254" y1="178.175" x2="308.12" y2="647.748" gradientUnits="userSpaceOnUse">
<stop stop-color="#8900EF"/>
<stop offset="1" stop-color="#4EFEF6"/>
</linearGradient>
</defs>
</svg>
