<svg width="227" height="63" viewBox="0 0 227 63" fill="none" xmlns="http://www.w3.org/2000/svg">
<path d="M5.58772 62V54.168H7.00672V62H5.58772ZM13.972 54.168H15.303V62H14.247L10.023 56.511V62H8.70296V54.168H9.75896L13.972 59.646V54.168ZM18.8437 62V55.334H16.2917V54.168H22.8367V55.334H20.2737V62H18.8437ZM23.8172 62V54.168H29.0532V55.29H25.2032V57.457H28.8222V58.579H25.2032V60.878H29.0532V62H23.8172ZM30.3592 62V54.168H31.7782V60.834H35.4412V62H30.3592ZM36.5145 62V54.168H37.9335V60.834H41.5965V62H36.5145ZM42.6698 62V54.168H47.9058V55.29H44.0558V57.457H47.6748V58.579H44.0558V60.878H47.9058V62H42.6698ZM52.7433 62.099C51.9733 62.099 51.2986 61.934 50.7193 61.604C50.1473 61.274 49.7073 60.8083 49.3993 60.207C49.0913 59.5983 48.9373 58.887 48.9373 58.073C48.9373 57.2663 49.0913 56.5623 49.3993 55.961C49.7073 55.3523 50.1473 54.8867 50.7193 54.564C51.2986 54.234 51.9733 54.069 52.7433 54.069C53.2713 54.069 53.7663 54.1533 54.2283 54.322C54.6976 54.4833 55.0863 54.7107 55.3943 55.004L54.9323 56.038C54.5803 55.752 54.2283 55.5467 53.8763 55.422C53.5316 55.29 53.1613 55.224 52.7653 55.224C52.0099 55.224 51.4233 55.4697 51.0053 55.961C50.5946 56.4523 50.3893 57.1563 50.3893 58.073C50.3893 58.997 50.5946 59.7083 51.0053 60.207C51.4159 60.6983 52.0026 60.944 52.7653 60.944C53.1613 60.944 53.5316 60.8817 53.8763 60.757C54.2283 60.625 54.5803 60.416 54.9323 60.13L55.3943 61.164C55.0863 61.4573 54.6976 61.6883 54.2283 61.857C53.7663 62.0183 53.2713 62.099 52.7433 62.099ZM58.4501 62V55.334H55.8981V54.168H62.4431V55.334H59.8801V62H58.4501ZM66.6577 62.099C65.5797 62.099 64.762 61.824 64.2047 61.274C63.6547 60.7167 63.3797 59.9027 63.3797 58.832V54.168H64.7767V58.909C64.7767 59.5837 64.9343 60.097 65.2497 60.449C65.565 60.7937 66.0343 60.966 66.6577 60.966C67.2663 60.966 67.7283 60.79 68.0437 60.438C68.3663 60.086 68.5277 59.5763 68.5277 58.909V54.168H69.9247V58.832C69.9247 59.8953 69.646 60.7057 69.0887 61.263C68.5313 61.8203 67.721 62.099 66.6577 62.099ZM77.4965 62L76.7155 60.163H72.8875L72.0955 62H70.6655L74.2075 54.168H75.3625L78.9155 62H77.4965ZM73.3605 59.063H76.2425L74.8015 55.708L73.3605 59.063ZM79.7625 62V54.168H81.1815V60.834H84.8445V62H79.7625ZM88.9364 54.168H92.3354C93.1787 54.168 93.835 54.3733 94.3044 54.784C94.7737 55.1873 95.0084 55.741 95.0084 56.445C95.0084 57.149 94.77 57.7063 94.2934 58.117C93.824 58.5277 93.1714 58.733 92.3354 58.733H90.3554V62H88.9364V54.168ZM92.1704 57.633C92.6617 57.633 93.032 57.534 93.2814 57.336C93.538 57.1307 93.6664 56.8373 93.6664 56.456C93.6664 56.0673 93.5417 55.774 93.2924 55.576C93.043 55.3707 92.669 55.268 92.1704 55.268H90.3554V57.633H92.1704ZM102.709 62H101.213L100.212 59.393C100.124 59.151 99.9879 58.9823 99.8045 58.887C99.6212 58.7917 99.3829 58.744 99.0895 58.744H97.6705V62H96.2625V54.168H99.6175C100.505 54.168 101.18 54.3623 101.642 54.751C102.104 55.1397 102.335 55.697 102.335 56.423C102.335 56.9437 102.195 57.3873 101.917 57.754C101.645 58.1133 101.257 58.37 100.751 58.524C101.213 58.6193 101.546 58.942 101.752 59.492L102.709 62ZM99.4195 57.644C99.9549 57.644 100.351 57.545 100.608 57.347C100.864 57.149 100.993 56.8483 100.993 56.445C100.993 56.049 100.864 55.7557 100.608 55.565C100.358 55.367 99.9622 55.268 99.4195 55.268H97.6485V57.644H99.4195ZM107.408 62.099C106.653 62.099 105.993 61.9377 105.428 61.615C104.871 61.285 104.438 60.8193 104.13 60.218C103.83 59.6093 103.679 58.8943 103.679 58.073C103.679 57.259 103.83 56.5513 104.13 55.95C104.431 55.3413 104.86 54.8757 105.417 54.553C105.982 54.2303 106.646 54.069 107.408 54.069C108.171 54.069 108.831 54.2303 109.388 54.553C109.953 54.8757 110.382 55.3413 110.675 55.95C110.976 56.5513 111.126 57.259 111.126 58.073C111.126 58.8943 110.976 59.6093 110.675 60.218C110.375 60.8193 109.946 61.285 109.388 61.615C108.831 61.9377 108.171 62.099 107.408 62.099ZM107.408 60.966C108.134 60.966 108.699 60.7167 109.102 60.218C109.506 59.7193 109.707 59.0043 109.707 58.073C109.707 57.149 109.506 56.4413 109.102 55.95C108.699 55.4513 108.134 55.202 107.408 55.202C106.682 55.202 106.118 55.4477 105.714 55.939C105.311 56.4303 105.109 57.1417 105.109 58.073C105.109 59.0043 105.311 59.7193 105.714 60.218C106.118 60.7167 106.682 60.966 107.408 60.966ZM112.58 54.168H115.979C116.822 54.168 117.479 54.3733 117.948 54.784C118.417 55.1873 118.652 55.741 118.652 56.445C118.652 57.149 118.414 57.7063 117.937 58.117C117.468 58.5277 116.815 58.733 115.979 58.733H113.999V62H112.58V54.168ZM115.814 57.633C116.305 57.633 116.676 57.534 116.925 57.336C117.182 57.1307 117.31 56.8373 117.31 56.456C117.31 56.0673 117.185 55.774 116.936 55.576C116.687 55.3707 116.313 55.268 115.814 55.268H113.999V57.633H115.814ZM119.906 62V54.168H125.142V55.29H121.292V57.457H124.911V58.579H121.292V60.878H125.142V62H119.906ZM132.894 62H131.398L130.397 59.393C130.309 59.151 130.173 58.9823 129.99 58.887C129.807 58.7917 129.568 58.744 129.275 58.744H127.856V62H126.448V54.168H129.803C130.69 54.168 131.365 54.3623 131.827 54.751C132.289 55.1397 132.52 55.697 132.52 56.423C132.52 56.9437 132.381 57.3873 132.102 57.754C131.831 58.1133 131.442 58.37 130.936 58.524C131.398 58.6193 131.732 58.942 131.937 59.492L132.894 62ZM129.605 57.644C130.14 57.644 130.536 57.545 130.793 57.347C131.05 57.149 131.178 56.8483 131.178 56.445C131.178 56.049 131.05 55.7557 130.793 55.565C130.544 55.367 130.148 55.268 129.605 55.268H127.834V57.644H129.605ZM135.794 62V55.334H133.242V54.168H139.787V55.334H137.224V62H135.794ZM147.43 54.168L144.251 58.898V62H142.832V58.898L139.653 54.168H141.27L143.536 57.71L145.813 54.168H147.43ZM155.683 57.952C156.138 58.084 156.486 58.315 156.728 58.645C156.977 58.975 157.102 59.382 157.102 59.866C157.102 60.5333 156.864 61.0577 156.387 61.439C155.918 61.813 155.261 62 154.418 62H150.865V54.168H154.308C155.115 54.168 155.749 54.3513 156.211 54.718C156.673 55.0773 156.904 55.576 156.904 56.214C156.904 56.6247 156.794 56.984 156.574 57.292C156.361 57.5927 156.064 57.8127 155.683 57.952ZM152.251 57.468H154.077C155.06 57.468 155.551 57.1013 155.551 56.368C155.551 56.0013 155.43 55.7263 155.188 55.543C154.946 55.3597 154.576 55.268 154.077 55.268H152.251V57.468ZM154.264 60.9C154.777 60.9 155.151 60.8083 155.386 60.625C155.628 60.4417 155.749 60.152 155.749 59.756C155.749 59.3527 155.628 59.0557 155.386 58.865C155.151 58.6743 154.777 58.579 154.264 58.579H152.251V60.9H154.264ZM158.46 62V54.168H159.879V60.834H163.542V62H158.46ZM167.661 62.099C166.906 62.099 166.246 61.9377 165.681 61.615C165.124 61.285 164.691 60.8193 164.383 60.218C164.083 59.6093 163.932 58.8943 163.932 58.073C163.932 57.259 164.083 56.5513 164.383 55.95C164.684 55.3413 165.113 54.8757 165.67 54.553C166.235 54.2303 166.899 54.069 167.661 54.069C168.424 54.069 169.084 54.2303 169.641 54.553C170.206 54.8757 170.635 55.3413 170.928 55.95C171.229 56.5513 171.379 57.259 171.379 58.073C171.379 58.8943 171.229 59.6093 170.928 60.218C170.628 60.8193 170.199 61.285 169.641 61.615C169.084 61.9377 168.424 62.099 167.661 62.099ZM167.661 60.966C168.387 60.966 168.952 60.7167 169.355 60.218C169.759 59.7193 169.96 59.0043 169.96 58.073C169.96 57.149 169.759 56.4413 169.355 55.95C168.952 55.4513 168.387 55.202 167.661 55.202C166.935 55.202 166.371 55.4477 165.967 55.939C165.564 56.4303 165.362 57.1417 165.362 58.073C165.362 59.0043 165.564 59.7193 165.967 60.218C166.371 60.7167 166.935 60.966 167.661 60.966ZM176.386 62.099C175.616 62.099 174.941 61.934 174.362 61.604C173.79 61.274 173.35 60.8083 173.042 60.207C172.734 59.5983 172.58 58.887 172.58 58.073C172.58 57.2663 172.734 56.5623 173.042 55.961C173.35 55.3523 173.79 54.8867 174.362 54.564C174.941 54.234 175.616 54.069 176.386 54.069C176.914 54.069 177.409 54.1533 177.871 54.322C178.34 54.4833 178.729 54.7107 179.037 55.004L178.575 56.038C178.223 55.752 177.871 55.5467 177.519 55.422C177.174 55.29 176.804 55.224 176.408 55.224C175.653 55.224 175.066 55.4697 174.648 55.961C174.237 56.4523 174.032 57.1563 174.032 58.073C174.032 58.997 174.237 59.7083 174.648 60.207C175.059 60.6983 175.645 60.944 176.408 60.944C176.804 60.944 177.174 60.8817 177.519 60.757C177.871 60.625 178.223 60.416 178.575 60.13L179.037 61.164C178.729 61.4573 178.34 61.6883 177.871 61.857C177.409 62.0183 176.914 62.099 176.386 62.099ZM187.161 62H185.423L181.782 58.337V62H180.363V54.168H181.782V57.677L185.28 54.168H186.985L183.179 57.93L187.161 62ZM190.942 62.099C190.172 62.099 189.497 61.934 188.918 61.604C188.346 61.274 187.906 60.8083 187.598 60.207C187.29 59.5983 187.136 58.887 187.136 58.073C187.136 57.2663 187.29 56.5623 187.598 55.961C187.906 55.3523 188.346 54.8867 188.918 54.564C189.497 54.234 190.172 54.069 190.942 54.069C191.47 54.069 191.965 54.1533 192.427 54.322C192.896 54.4833 193.285 54.7107 193.593 55.004L193.131 56.038C192.779 55.752 192.427 55.5467 192.075 55.422C191.73 55.29 191.36 55.224 190.964 55.224C190.208 55.224 189.622 55.4697 189.204 55.961C188.793 56.4523 188.588 57.1563 188.588 58.073C188.588 58.997 188.793 59.7083 189.204 60.207C189.614 60.6983 190.201 60.944 190.964 60.944C191.36 60.944 191.73 60.8817 192.075 60.757C192.427 60.625 192.779 60.416 193.131 60.13L193.593 61.164C193.285 61.4573 192.896 61.6883 192.427 61.857C191.965 62.0183 191.47 62.099 190.942 62.099ZM200.331 54.168H201.739V62H200.331V58.601H196.316V62H194.919V54.168H196.316V57.446H200.331V54.168ZM209.421 62L208.64 60.163H204.812L204.02 62H202.59L206.132 54.168H207.287L210.84 62H209.421ZM205.285 59.063H208.167L206.726 55.708L205.285 59.063ZM211.687 62V54.168H213.106V62H211.687ZM220.072 54.168H221.403V62H220.347L216.123 56.511V62H214.803V54.168H215.859L220.072 59.646V54.168Z" fill="black"/>
<path d="M85.5002 35.8364V1.40173H102.634C104.464 1.40173 106.072 1.68445 107.514 2.24988C108.956 2.81531 110.231 3.60691 111.229 4.68123C112.283 5.75555 113.059 6.99949 113.614 8.46961C114.168 9.93973 114.445 11.636 114.445 13.4454V23.7928C114.445 25.6021 114.168 27.2984 113.614 28.7686C113.059 30.2387 112.283 31.5392 111.229 32.5569C110.176 33.6313 108.956 34.4229 107.514 34.9883C106.072 35.5537 104.409 35.8364 102.634 35.8364H85.5002ZM102.634 30.9172C104.852 30.9172 106.627 30.2952 107.791 29.0513C109.011 27.8073 109.621 26.0545 109.621 23.7928V13.4454C109.621 12.3145 109.455 11.3533 109.178 10.4486C108.845 9.54393 108.401 8.80887 107.791 8.1869C107.181 7.56492 106.461 7.11258 105.573 6.77332C104.686 6.43406 103.743 6.32098 102.634 6.32098H90.3244V30.9172H102.634Z" fill="black"/>
<path d="M121.432 1.40161H145.387V6.32085H126.126V16.1593H142.527V21.0786H126.126V30.9171H145.387V35.8363H121.432V1.40161Z" fill="black"/>
<path d="M156.865 1.40161V35.8363H152.374V1.40161H156.865Z" fill="black"/>
<path d="M164.351 35.8363V1.40161H182.662C188.051 1.40161 190.801 4.17222 190.801 9.76998V14.6892C190.801 20.287 188.106 23.0576 182.662 23.0576H169.135V35.8363H164.351ZM169.135 18.1383H182.442C183.707 18.1383 184.642 17.8556 185.192 17.2902C185.742 16.7248 186.017 15.7635 186.017 14.4631V10.0527C186.017 8.75221 185.742 7.79097 185.192 7.22554C184.642 6.66011 183.707 6.3774 182.442 6.3774H169.135V18.1383Z" fill="black"/>
<path fill-rule="evenodd" clip-rule="evenodd" d="M48.2677 1.67739C48.2677 0.964223 48.8458 0.386088 49.559 0.386088H69.3803C70.0935 0.386088 70.6716 0.964223 70.6716 1.67739C70.6716 2.39056 70.0935 2.96869 69.3803 2.96869H49.559C48.8458 2.96869 48.2677 2.39056 48.2677 1.67739Z" fill="black"/>
<path fill-rule="evenodd" clip-rule="evenodd" d="M36.4373 8.08153C36.4373 7.36837 37.0155 6.79023 37.7286 6.79023H58.0806C58.7938 6.79023 59.3719 7.36837 59.3719 8.08153C59.3719 8.7947 58.7938 9.37283 58.0806 9.37283H37.7286C37.0155 9.37283 36.4373 8.7947 36.4373 8.08153Z" fill="black"/>
<path fill-rule="evenodd" clip-rule="evenodd" d="M36.7183 30.1815C36.7183 29.4683 37.2964 28.8902 38.0096 28.8902H57.8309C58.5441 28.8902 59.1222 29.4683 59.1222 30.1815C59.1222 30.8946 58.5441 31.4728 57.8309 31.4728H38.0096C37.2964 31.4728 36.7183 30.8946 36.7183 30.1815Z" fill="black"/>
<path fill-rule="evenodd" clip-rule="evenodd" d="M70.7965 36.0469C70.7981 36.7601 70.2212 37.3395 69.5081 37.3411L49.5619 37.3855C48.8487 37.387 48.2693 36.8102 48.2677 36.097C48.2661 35.3839 48.843 34.8044 49.5561 34.8029L69.5023 34.7585C70.2155 34.7569 70.7949 35.3338 70.7965 36.0469Z" fill="black"/>
<path fill-rule="evenodd" clip-rule="evenodd" d="M36.7847 6.62343C37.4406 6.34347 38.1993 6.64823 38.4793 7.30415L50.4059 35.2465C50.6858 35.9024 50.3811 36.6611 49.7252 36.941C49.0692 37.221 48.3106 36.9162 48.0306 36.2603L36.104 8.31799C35.824 7.66207 36.1288 6.90339 36.7847 6.62343Z" fill="black"/>
<path fill-rule="evenodd" clip-rule="evenodd" d="M57.484 6.95462C58.1408 6.67682 58.8985 6.9841 59.1763 7.64093L70.8532 35.2504C71.131 35.9072 70.8237 36.6649 70.1668 36.9427C69.51 37.2205 68.7523 36.9132 68.4745 36.2564L56.7977 8.64692C56.5199 7.99009 56.8271 7.23241 57.484 6.95462Z" fill="black"/>
<path fill-rule="evenodd" clip-rule="evenodd" d="M37.4901 31.4988C38.1515 31.7656 38.9039 31.4457 39.1707 30.7843L50.4756 2.75864C50.7424 2.09726 50.4225 1.34483 49.7611 1.07804C49.0997 0.811249 48.3473 1.13114 48.0805 1.79252L36.7756 29.8182C36.5088 30.4796 36.8287 31.232 37.4901 31.4988Z" fill="black"/>
<path fill-rule="evenodd" clip-rule="evenodd" d="M57.3799 31.3482C58.0415 31.6145 58.7937 31.294 59.06 30.6325L70.521 2.15957C70.7873 1.49799 70.4669 0.74579 69.8053 0.479488C69.1437 0.213186 68.3915 0.533624 68.1252 1.19521L56.6642 29.6681C56.3979 30.3297 56.7183 31.0819 57.3799 31.3482Z" fill="black"/>
<path fill-rule="evenodd" clip-rule="evenodd" d="M50.714 1.09994C51.0329 1.73782 50.7744 2.51347 50.1365 2.83241L37.8691 8.96609C37.2312 9.28503 36.4556 9.02648 36.1367 8.3886C35.8177 7.75073 36.0763 6.97507 36.7141 6.65614L48.9815 0.522455C49.6194 0.203518 50.395 0.462068 50.714 1.09994Z" fill="black"/>
<path fill-rule="evenodd" clip-rule="evenodd" d="M70.4509 1.04854C70.7982 1.67143 70.5748 2.45792 69.9519 2.80522L58.5222 9.17812C57.8993 9.52542 57.1128 9.30202 56.7655 8.67913C56.4182 8.05624 56.6416 7.26975 57.2645 6.92245L68.6942 0.549554C69.3171 0.202252 70.1036 0.425657 70.4509 1.04854Z" fill="black"/>
<path fill-rule="evenodd" clip-rule="evenodd" d="M50.714 36.6716C51.0329 36.0338 50.7744 35.2581 50.1365 34.9392L38.5506 29.1463C37.9128 28.8273 37.1371 29.0859 36.8182 29.7237C36.4992 30.3616 36.7578 31.1373 37.3957 31.4562L48.9815 37.2491C49.6194 37.5681 50.395 37.3095 50.714 36.6716Z" fill="black"/>
<path fill-rule="evenodd" clip-rule="evenodd" d="M70.8132 36.6334C71.1355 35.9972 70.881 35.2202 70.2448 34.8979L58.4769 28.9359C57.8407 28.6136 57.0637 28.868 56.7414 29.5042C56.4191 30.1404 56.6735 30.9174 57.3097 31.2397L69.0777 37.2017C69.7138 37.524 70.4908 37.2696 70.8132 36.6334Z" fill="black"/>
</svg>
