<svg width="229" height="101" viewBox="0 0 229 101" fill="none" xmlns="http://www.w3.org/2000/svg">
<path fill-rule="evenodd" clip-rule="evenodd" d="M62.6833 13.012L38.306 0L13.8833 13.0009L18.6411 47.6736L38.3234 61L57.0811 47.6668L62.6833 13.012ZM21.0292 46.2839L16.6458 14.3402L38.3043 2.81083L59.8831 14.3291L54.7163 46.2907L38.287 57.9687L21.0292 46.2839Z" fill="black"/>
<path d="M30.8103 20.9597V40.6787H27.9913V20.9597H30.8103Z" fill="black"/>
<path d="M35.8844 40.6787V20.9597H46.679C49.8692 20.9597 51.4644 22.5594 51.4644 25.7588V28.564C51.4644 31.7635 49.8692 33.3632 46.679 33.3632H38.7034V40.6787H35.8844ZM38.7034 30.5442H46.5277C47.2795 30.5442 47.8203 30.3792 48.1504 30.0492C48.4804 29.7191 48.6454 29.1783 48.6454 28.4265V25.8963C48.6454 25.1446 48.4804 24.6037 48.1504 24.2737C47.8203 23.9437 47.2795 23.7787 46.5277 23.7787H38.7034V30.5442Z" fill="black"/>
<path d="M73.6792 20.9597V37.8598H83.8137V40.6787H70.8602V20.9597H73.6792Z" fill="black"/>
<path d="M87.1965 20.9597H101.566V23.7787H90.0154V29.4166H99.8749V32.2356H90.0154V37.8598H101.566V40.6787H87.1965V20.9597Z" fill="black"/>
<path d="M115.812 37.8598C117.123 37.8598 118.132 37.5068 118.838 36.8009C119.544 36.095 119.896 35.0866 119.896 33.7757V27.8627C119.896 27.221 119.805 26.6481 119.621 26.1439C119.438 25.6397 119.168 25.2134 118.81 24.865C118.462 24.5075 118.035 24.237 117.531 24.0537C117.027 23.8704 116.454 23.7787 115.812 23.7787H108.607V37.8598H115.812ZM105.788 40.6787V20.9597H115.812C116.867 20.9597 117.815 21.1247 118.659 21.4548C119.511 21.7756 120.236 22.2386 120.832 22.8436C121.437 23.4395 121.9 24.1637 122.22 25.0163C122.55 25.8688 122.715 26.8177 122.715 27.8627V33.7757C122.715 34.8208 122.55 35.7696 122.22 36.6222C121.9 37.4747 121.437 38.2035 120.832 38.8086C120.236 39.4045 119.511 39.8674 118.659 40.1974C117.815 40.5183 116.867 40.6787 115.812 40.6787H105.788Z" fill="black"/>
<path d="M127.24 23.7787C127.24 23.3937 127.313 23.0315 127.46 22.6923C127.606 22.344 127.808 22.046 128.065 21.7985C128.321 21.5418 128.619 21.3402 128.958 21.1935C129.307 21.0376 129.673 20.9597 130.058 20.9597H140.757C141.142 20.9597 141.504 21.0376 141.843 21.1935C142.191 21.3402 142.494 21.5418 142.751 21.7985C143.007 22.046 143.209 22.344 143.356 22.6923C143.502 23.0315 143.576 23.3937 143.576 23.7787V26.3226H140.757V23.7787H130.058V37.8598H140.757V33.0744H135.408V30.2554H143.576V37.8598C143.576 38.2448 143.502 38.6115 143.356 38.9598C143.209 39.299 143.007 39.597 142.751 39.8537C142.494 40.1103 142.191 40.312 141.843 40.4587C141.504 40.6054 141.142 40.6787 140.757 40.6787H130.058C129.673 40.6787 129.307 40.6054 128.958 40.4587C128.619 40.312 128.321 40.1103 128.065 39.8537C127.808 39.597 127.606 39.299 127.46 38.9598C127.313 38.6115 127.24 38.2448 127.24 37.8598V23.7787Z" fill="black"/>
<path d="M148.636 20.9597H163.006V23.7787H151.455V29.4166H161.315V32.2356H151.455V37.8598H163.006V40.6787H148.636V20.9597Z" fill="black"/>
<path d="M182.807 28.0003C182.807 30.7505 181.634 32.3181 179.287 32.7031L183 40.6787H179.879L176.221 32.7994H170.047V40.6787H167.228V20.9597H178.022C181.212 20.9597 182.807 22.5594 182.807 25.7588V28.0003ZM170.047 29.9804H177.871C178.623 29.9804 179.163 29.8154 179.493 29.4854C179.824 29.1553 179.989 28.6145 179.989 27.8627V25.8963C179.989 25.1446 179.824 24.6037 179.493 24.2737C179.163 23.9437 178.623 23.7787 177.871 23.7787H170.047V29.9804Z" fill="black"/>
<path d="M0.236624 79.3635V67.4678H1.95749V79.3635H0.236624Z" fill="black"/>
<path d="M9.05072 70.7425C11.0668 70.7425 12.0748 71.8674 12.0748 74.1174V79.3635H10.3873V74.2176C10.3873 73.4825 10.2425 72.9479 9.95292 72.6137C9.67447 72.2796 9.22337 72.1125 8.59962 72.1125C7.88677 72.1125 7.31315 72.3352 6.87875 72.7808C6.4555 73.2263 6.24387 73.8222 6.24387 74.5685V79.3635H4.57312V73.3154C4.57312 72.4355 4.52857 71.6447 4.43946 70.943H6.00996L6.16033 72.3965C6.42765 71.8619 6.81192 71.4553 7.31315 71.1769C7.82551 70.8873 8.4047 70.7425 9.05072 70.7425Z" fill="black"/>
<path d="M16.6655 72.2461V76.4731C16.6655 77.0523 16.7881 77.4644 17.0331 77.7095C17.2893 77.9434 17.6401 78.0603 18.0857 78.0603C18.3753 78.0603 18.6704 78.0158 18.9712 77.9267V79.2967C18.6036 79.4192 18.1859 79.4805 17.7181 79.4805C16.8493 79.4805 16.1755 79.2354 15.6965 78.7453C15.2176 78.2553 14.9781 77.5424 14.9781 76.6068V72.2461H13.3408V70.943H14.9781V68.8378L16.6655 68.2531V70.943H18.9879V72.2461H16.6655Z" fill="black"/>
<path d="M27.7306 75.1867H21.7159C21.7716 77.1581 22.6682 78.1439 24.4058 78.1439C25.3748 78.1439 26.2603 77.8264 27.0623 77.1915L27.5802 78.3945C27.2015 78.7286 26.717 78.996 26.1267 79.1964C25.5475 79.3858 24.9627 79.4805 24.3724 79.4805C23.0246 79.4805 21.9665 79.0962 21.198 78.3277C20.4294 77.548 20.0451 76.4843 20.0451 75.1365C20.0451 74.2789 20.2122 73.5159 20.5464 72.8476C20.8917 72.1793 21.3706 71.6614 21.9832 71.2938C22.5958 70.9263 23.292 70.7425 24.0716 70.7425C25.2077 70.7425 26.0988 71.11 26.7448 71.8452C27.402 72.5803 27.7306 73.5994 27.7306 74.9026V75.1867ZM24.1051 71.9955C23.4702 71.9955 22.9522 72.1849 22.5513 72.5636C22.1503 72.9423 21.8941 73.4825 21.7827 74.1842H26.2436C26.1768 73.4714 25.9596 72.9311 25.592 72.5636C25.2245 72.1849 24.7288 71.9955 24.1051 71.9955Z" fill="black"/>
<path d="M29.6669 79.3635V67.0668H31.3377V79.3635H29.6669Z" fill="black"/>
<path d="M33.8112 79.3635V67.0668H35.4819V79.3635H33.8112Z" fill="black"/>
<path d="M45.1396 75.1867H39.1249C39.1806 77.1581 40.0773 78.1439 41.8148 78.1439C42.7839 78.1439 43.6694 77.8264 44.4713 77.1915L44.9892 78.3945C44.6105 78.7286 44.126 78.996 43.5357 79.1964C42.9565 79.3858 42.3717 79.4805 41.7814 79.4805C40.4337 79.4805 39.3755 79.0962 38.607 78.3277C37.8385 77.548 37.4542 76.4843 37.4542 75.1365C37.4542 74.2789 37.6213 73.5159 37.9554 72.8476C38.3007 72.1793 38.7796 71.6614 39.3922 71.2938C40.0049 70.9263 40.701 70.7425 41.4807 70.7425C42.6168 70.7425 43.5079 71.11 44.1539 71.8452C44.811 72.5803 45.1396 73.5994 45.1396 74.9026V75.1867ZM41.5141 71.9955C40.8792 71.9955 40.3613 72.1849 39.9603 72.5636C39.5593 72.9423 39.3031 73.4825 39.1918 74.1842H43.6526C43.5858 73.4714 43.3686 72.9311 43.0011 72.5636C42.6335 72.1849 42.1378 71.9955 41.5141 71.9955Z" fill="black"/>
<path d="M50.7349 79.4805C49.8884 79.4805 49.1477 79.3023 48.5128 78.9458C47.8891 78.5894 47.4101 78.0882 47.076 77.4422C46.7418 76.785 46.5748 76.022 46.5748 75.1532C46.5748 74.2845 46.7474 73.5159 47.0927 72.8476C47.4491 72.1793 47.9448 71.6614 48.5797 71.2938C49.2145 70.9263 49.9552 70.7425 50.8017 70.7425C51.3921 70.7425 51.9601 70.8427 52.5059 71.0432C53.0517 71.2326 53.4916 71.4943 53.8258 71.8285L53.3079 73.0481C52.517 72.4244 51.7207 72.1125 50.9187 72.1125C50.1056 72.1125 49.4707 72.3798 49.014 72.9144C48.5574 73.4379 48.329 74.1786 48.329 75.1365C48.329 76.0944 48.5574 76.8351 49.014 77.3586C49.4707 77.871 50.1056 78.1272 50.9187 78.1272C51.7429 78.1272 52.5393 77.8153 53.3079 77.1915L53.8258 78.4112C53.4694 78.7453 53.0127 79.0071 52.4558 79.1964C51.91 79.3858 51.3364 79.4805 50.7349 79.4805Z" fill="black"/>
<path d="M57.6347 72.2461V76.4731C57.6347 77.0523 57.7572 77.4644 58.0023 77.7095C58.2584 77.9434 58.6093 78.0603 59.0548 78.0603C59.3444 78.0603 59.6396 78.0158 59.9403 77.9267V79.2967C59.5728 79.4192 59.1551 79.4805 58.6873 79.4805C57.8185 79.4805 57.1446 79.2354 56.6657 78.7453C56.1867 78.2553 55.9472 77.5424 55.9472 76.6068V72.2461H54.3099V70.943H55.9472V68.8378L57.6347 68.2531V70.943H59.957V72.2461H57.6347Z" fill="black"/>
<path d="M68.8334 70.943V79.3635H67.1961V77.9601C66.9287 78.4502 66.5612 78.8289 66.0934 79.0962C65.6256 79.3524 65.0965 79.4805 64.5062 79.4805C62.479 79.4805 61.4654 78.3555 61.4654 76.1056V70.943H63.1362V76.0889C63.1362 76.7794 63.2754 77.2918 63.5538 77.6259C63.8434 77.949 64.2778 78.1105 64.857 78.1105C65.5476 78.1105 66.0989 77.8877 66.5111 77.4422C66.9343 76.9966 67.1459 76.4063 67.1459 75.6712V70.943H68.8334Z" fill="black"/>
<path d="M79.0072 70.943V79.3635H77.3364V77.9267C77.0914 78.4279 76.7238 78.8122 76.2338 79.0795C75.7548 79.3468 75.1923 79.4805 74.5463 79.4805C73.8 79.4805 73.1429 79.3023 72.5748 78.9458C72.0179 78.5894 71.5835 78.0882 71.2716 77.4422C70.9598 76.785 70.8038 76.022 70.8038 75.1532C70.8038 74.2845 70.9598 73.5159 71.2716 72.8476C71.5947 72.1793 72.0402 71.6614 72.6082 71.2938C73.1763 70.9263 73.8223 70.7425 74.5463 70.7425C75.1923 70.7425 75.7548 70.8817 76.2338 71.1602C76.7127 71.4275 77.0803 71.8117 77.3364 72.313V70.943H79.0072ZM74.9473 78.1439C75.7047 78.1439 76.2894 77.8821 76.7016 77.3586C77.1248 76.824 77.3364 76.0777 77.3364 75.1198C77.3364 74.1508 77.1248 73.4045 76.7016 72.881C76.2894 72.3575 75.6991 72.0958 74.9306 72.0958C74.1732 72.0958 73.5773 72.3687 73.1429 72.9144C72.7196 73.4491 72.508 74.1953 72.508 75.1532C72.508 76.1 72.7196 76.8351 73.1429 77.3586C73.5773 77.8821 74.1787 78.1439 74.9473 78.1439Z" fill="black"/>
<path d="M81.4862 79.3635V67.0668H83.1569V79.3635H81.4862Z" fill="black"/>
<path d="M90.235 67.4678H95.1804C96.4279 67.4678 97.3969 67.7741 98.0875 68.3867C98.7892 68.9882 99.1401 69.8124 99.1401 70.8594C99.1401 71.9064 98.7836 72.7362 98.0708 73.3488C97.3691 73.9503 96.4056 74.251 95.1804 74.251H91.9559V79.3635H90.235V67.4678ZM94.9799 72.881C95.8041 72.881 96.4223 72.7084 96.8344 72.3631C97.2577 72.0178 97.4693 71.5166 97.4693 70.8594C97.4693 70.2134 97.2577 69.7177 96.8344 69.3725C96.4223 69.0272 95.8041 68.8545 94.9799 68.8545H91.9559V72.881H94.9799Z" fill="black"/>
<path d="M105.112 70.7425C105.368 70.7425 105.635 70.7815 105.914 70.8594L105.88 72.3965C105.58 72.2851 105.251 72.2294 104.895 72.2294C104.126 72.2294 103.547 72.4633 103.157 72.9311C102.778 73.3878 102.589 73.967 102.589 74.6687V79.3635H100.918V73.3154C100.918 72.4355 100.874 71.6447 100.785 70.943H102.355L102.506 72.4633C102.728 71.9064 103.074 71.4832 103.541 71.1936C104.009 70.8928 104.533 70.7425 105.112 70.7425Z" fill="black"/>
<path d="M110.662 79.4805C109.838 79.4805 109.114 79.3023 108.49 78.9458C107.867 78.5894 107.382 78.0826 107.037 77.4255C106.703 76.7683 106.536 75.9997 106.536 75.1198C106.536 74.2399 106.703 73.4714 107.037 72.8142C107.382 72.1459 107.867 71.6335 108.49 71.2771C109.114 70.9207 109.838 70.7425 110.662 70.7425C111.475 70.7425 112.194 70.9207 112.818 71.2771C113.441 71.6335 113.92 72.1459 114.254 72.8142C114.6 73.4714 114.772 74.2399 114.772 75.1198C114.772 75.9997 114.6 76.7683 114.254 77.4255C113.92 78.0826 113.441 78.5894 112.818 78.9458C112.194 79.3023 111.475 79.4805 110.662 79.4805ZM110.646 78.1439C111.425 78.1439 112.021 77.8877 112.433 77.3753C112.845 76.863 113.052 76.1111 113.052 75.1198C113.052 74.1508 112.84 73.4045 112.417 72.881C112.005 72.3575 111.42 72.0958 110.662 72.0958C109.894 72.0958 109.298 72.3575 108.875 72.881C108.451 73.4045 108.24 74.1508 108.24 75.1198C108.24 76.1111 108.446 76.863 108.858 77.3753C109.281 77.8877 109.877 78.1439 110.646 78.1439Z" fill="black"/>
<path d="M121.206 70.7425C121.93 70.7425 122.576 70.9263 123.144 71.2938C123.712 71.6614 124.152 72.1793 124.464 72.8476C124.787 73.5159 124.948 74.2845 124.948 75.1532C124.948 76.022 124.792 76.785 124.48 77.4422C124.168 78.0882 123.728 78.5894 123.16 78.9458C122.592 79.3023 121.941 79.4805 121.206 79.4805C120.56 79.4805 119.992 79.3468 119.502 79.0795C119.023 78.801 118.661 78.4056 118.416 77.8933V82.9723H116.745V73.3154C116.745 72.4355 116.7 71.6447 116.611 70.943H118.182L118.349 72.4968C118.571 71.9398 118.933 71.511 119.435 71.2103C119.936 70.8984 120.526 70.7425 121.206 70.7425ZM120.821 78.1439C121.579 78.1439 122.169 77.8821 122.592 77.3586C123.016 76.8351 123.227 76.1 123.227 75.1532C123.227 74.1953 123.016 73.4491 122.592 72.9144C122.169 72.3687 121.579 72.0958 120.821 72.0958C120.042 72.0958 119.446 72.3575 119.034 72.881C118.622 73.4045 118.416 74.1508 118.416 75.1198C118.416 76.0889 118.622 76.8351 119.034 77.3586C119.457 77.8821 120.053 78.1439 120.821 78.1439Z" fill="black"/>
<path d="M134.11 75.1867H128.095C128.151 77.1581 129.048 78.1439 130.785 78.1439C131.754 78.1439 132.64 77.8264 133.442 77.1915L133.96 78.3945C133.581 78.7286 133.096 78.996 132.506 79.1964C131.927 79.3858 131.342 79.4805 130.752 79.4805C129.404 79.4805 128.346 79.0962 127.577 78.3277C126.809 77.548 126.425 76.4843 126.425 75.1365C126.425 74.2789 126.592 73.5159 126.926 72.8476C127.271 72.1793 127.75 71.6614 128.363 71.2938C128.975 70.9263 129.671 70.7425 130.451 70.7425C131.587 70.7425 132.478 71.11 133.124 71.8452C133.782 72.5803 134.11 73.5994 134.11 74.9026V75.1867ZM130.485 71.9955C129.85 71.9955 129.332 72.1849 128.931 72.5636C128.53 72.9423 128.274 73.4825 128.162 74.1842H132.623C132.556 73.4714 132.339 72.9311 131.972 72.5636C131.604 72.1849 131.108 71.9955 130.485 71.9955Z" fill="black"/>
<path d="M140.24 70.7425C140.496 70.7425 140.764 70.7815 141.042 70.8594L141.009 72.3965C140.708 72.2851 140.379 72.2294 140.023 72.2294C139.254 72.2294 138.675 72.4633 138.285 72.9311C137.907 73.3878 137.717 73.967 137.717 74.6687V79.3635H136.046V73.3154C136.046 72.4355 136.002 71.6447 135.913 70.943H137.483L137.634 72.4633C137.856 71.9064 138.202 71.4832 138.67 71.1936C139.137 70.8928 139.661 70.7425 140.24 70.7425Z" fill="black"/>
<path d="M145.218 72.2461V76.4731C145.218 77.0523 145.341 77.4644 145.586 77.7095C145.842 77.9434 146.193 78.0603 146.638 78.0603C146.928 78.0603 147.223 78.0158 147.524 77.9267V79.2967C147.156 79.4192 146.739 79.4805 146.271 79.4805C145.402 79.4805 144.728 79.2354 144.249 78.7453C143.77 78.2553 143.531 77.5424 143.531 76.6068V72.2461H141.894V70.943H143.531V68.8378L145.218 68.2531V70.943H147.541V72.2461H145.218Z" fill="black"/>
<path d="M156.865 70.943L152.939 80.0485C152.505 81.0398 151.959 81.7638 151.302 82.2205C150.656 82.6883 149.854 83.0002 148.896 83.1561L148.528 81.8529C149.319 81.6747 149.915 81.4408 150.316 81.1512C150.728 80.8728 151.057 80.4495 151.302 79.8814L151.603 79.1797L148.061 70.943H149.848L152.488 77.4589L155.178 70.943H156.865Z" fill="black"/>
<path d="M162.775 67.4678H167.721C168.968 67.4678 169.937 67.7741 170.628 68.3867C171.33 68.9882 171.68 69.8124 171.68 70.8594C171.68 71.9064 171.324 72.7362 170.611 73.3488C169.909 73.9503 168.946 74.251 167.721 74.251H164.496V79.3635H162.775V67.4678ZM167.52 72.881C168.345 72.881 168.963 72.7084 169.375 72.3631C169.798 72.0178 170.01 71.5166 170.01 70.8594C170.01 70.2134 169.798 69.7177 169.375 69.3725C168.963 69.0272 168.345 68.8545 167.52 68.8545H164.496V72.881H167.52Z" fill="black"/>
<path d="M173.622 79.3635V67.0668H175.293V79.3635H173.622Z" fill="black"/>
<path d="M185.468 70.943V79.3635H183.798V77.9267C183.552 78.4279 183.185 78.8122 182.695 79.0795C182.216 79.3468 181.653 79.4805 181.007 79.4805C180.261 79.4805 179.604 79.3023 179.036 78.9458C178.479 78.5894 178.045 78.0882 177.733 77.4422C177.421 76.785 177.265 76.022 177.265 75.1532C177.265 74.2845 177.421 73.5159 177.733 72.8476C178.056 72.1793 178.501 71.6614 179.069 71.2938C179.637 70.9263 180.283 70.7425 181.007 70.7425C181.653 70.7425 182.216 70.8817 182.695 71.1602C183.174 71.4275 183.541 71.8117 183.798 72.313V70.943H185.468ZM181.408 78.1439C182.166 78.1439 182.751 77.8821 183.163 77.3586C183.586 76.824 183.798 76.0777 183.798 75.1198C183.798 74.1508 183.586 73.4045 183.163 72.881C182.751 72.3575 182.16 72.0958 181.392 72.0958C180.634 72.0958 180.038 72.3687 179.604 72.9144C179.181 73.4491 178.969 74.1953 178.969 75.1532C178.969 76.1 179.181 76.8351 179.604 77.3586C180.038 77.8821 180.64 78.1439 181.408 78.1439Z" fill="black"/>
<path d="M190.136 72.2461V76.4731C190.136 77.0523 190.258 77.4644 190.503 77.7095C190.76 77.9434 191.111 78.0603 191.556 78.0603C191.846 78.0603 192.141 78.0158 192.442 77.9267V79.2967C192.074 79.4192 191.656 79.4805 191.188 79.4805C190.32 79.4805 189.646 79.2354 189.167 78.7453C188.688 78.2553 188.448 77.5424 188.448 76.6068V72.2461H186.811V70.943H188.448V68.8378L190.136 68.2531V70.943H192.458V72.2461H190.136Z" fill="black"/>
<path d="M197.706 68.4201C196.781 68.4201 196.319 68.9492 196.319 70.0073V70.943H198.291V72.2461H196.319V79.3635H194.632V72.2461H193.011V70.943H194.632V69.8737C194.632 68.9381 194.866 68.2252 195.334 67.7351C195.812 67.245 196.481 67 197.338 67C197.784 67 198.19 67.0557 198.558 67.1671V68.5538C198.257 68.4647 197.973 68.4201 197.706 68.4201Z" fill="black"/>
<path d="M203.549 79.4805C202.724 79.4805 202 79.3023 201.377 78.9458C200.753 78.5894 200.268 78.0826 199.923 77.4255C199.589 76.7683 199.422 75.9997 199.422 75.1198C199.422 74.2399 199.589 73.4714 199.923 72.8142C200.268 72.1459 200.753 71.6335 201.377 71.2771C202 70.9207 202.724 70.7425 203.549 70.7425C204.362 70.7425 205.08 70.9207 205.704 71.2771C206.328 71.6335 206.807 72.1459 207.141 72.8142C207.486 73.4714 207.659 74.2399 207.659 75.1198C207.659 75.9997 207.486 76.7683 207.141 77.4255C206.807 78.0826 206.328 78.5894 205.704 78.9458C205.08 79.3023 204.362 79.4805 203.549 79.4805ZM203.532 78.1439C204.312 78.1439 204.907 77.8877 205.32 77.3753C205.732 76.863 205.938 76.1111 205.938 75.1198C205.938 74.1508 205.726 73.4045 205.303 72.881C204.891 72.3575 204.306 72.0958 203.549 72.0958C202.78 72.0958 202.184 72.3575 201.761 72.881C201.338 73.4045 201.126 74.1508 201.126 75.1198C201.126 76.1111 201.332 76.863 201.744 77.3753C202.167 77.8877 202.763 78.1439 203.532 78.1439Z" fill="black"/>
<path d="M213.825 70.7425C214.081 70.7425 214.348 70.7815 214.627 70.8594L214.593 72.3965C214.292 72.2851 213.964 72.2294 213.607 72.2294C212.839 72.2294 212.26 72.4633 211.87 72.9311C211.491 73.3878 211.302 73.967 211.302 74.6687V79.3635H209.631V73.3154C209.631 72.4355 209.587 71.6447 209.497 70.943H211.068L211.218 72.4633C211.441 71.9064 211.786 71.4832 212.254 71.1936C212.722 70.8928 213.245 70.7425 213.825 70.7425Z" fill="black"/>
<path d="M225.519 70.7425C227.391 70.7425 228.326 71.8674 228.326 74.1174V79.3635H226.639V74.2009C226.639 73.4769 226.511 72.9479 226.255 72.6137C226.01 72.2796 225.609 72.1125 225.052 72.1125C224.406 72.1125 223.893 72.3352 223.515 72.7808C223.147 73.2263 222.963 73.8333 222.963 74.6019V79.3635H221.276V74.2009C221.276 73.4769 221.148 72.9479 220.891 72.6137C220.646 72.2796 220.245 72.1125 219.689 72.1125C219.043 72.1125 218.53 72.3352 218.151 72.7808C217.773 73.2263 217.583 73.8333 217.583 74.6019V79.3635H215.913V73.3154C215.913 72.4355 215.868 71.6447 215.779 70.943H217.35L217.5 72.3464C217.745 71.834 218.096 71.4386 218.552 71.1602C219.009 70.8817 219.544 70.7425 220.156 70.7425C221.46 70.7425 222.312 71.2827 222.713 72.3631C222.969 71.8619 223.342 71.4665 223.832 71.1769C224.333 70.8873 224.896 70.7425 225.519 70.7425Z" fill="black"/>
<path d="M3.24902 89.876C3.88157 89.876 4.43745 90.0341 4.91666 90.3504C5.40545 90.6571 5.78402 91.0932 6.05237 91.6586C6.32073 92.2241 6.45491 92.8806 6.45491 93.6282C6.45491 94.3757 6.32073 95.0275 6.05237 95.5833C5.7936 96.1392 5.41982 96.5705 4.93103 96.8772C4.44224 97.1839 3.88157 97.3372 3.24902 97.3372C2.62605 97.3372 2.09892 97.2031 1.66764 96.9347C1.23635 96.6568 0.915284 96.2542 0.704433 95.7271V100.342H0.115009V92.0324C0.115009 91.2849 0.076673 90.6236 0 90.0485H0.575047L0.690057 91.5149C0.891323 90.9878 1.21239 90.5852 1.65326 90.3073C2.09413 90.0198 2.62605 89.876 3.24902 89.876ZM3.24902 96.7478C4.05408 96.7478 4.67705 96.4747 5.11792 95.9284C5.56838 95.3821 5.7936 94.6153 5.7936 93.6282C5.7936 92.6314 5.56838 91.8551 5.11792 91.2992C4.67705 90.7434 4.05888 90.4654 3.26339 90.4654C2.43916 90.4654 1.80661 90.7386 1.36574 91.2849C0.934452 91.8216 0.718809 92.5931 0.718809 93.5994C0.718809 94.6058 0.934452 95.3821 1.36574 95.9284C1.80661 96.4747 2.43437 96.7478 3.24902 96.7478Z" fill="black"/>
<path d="M11.2135 97.3372C10.581 97.3372 10.0203 97.1839 9.53152 96.8772C9.04273 96.5705 8.66416 96.1344 8.3958 95.569C8.13703 95.0035 8.00765 94.347 8.00765 93.5994C8.00765 92.8519 8.13703 92.2002 8.3958 91.6443C8.66416 91.0788 9.04273 90.6427 9.53152 90.336C10.0203 90.0293 10.581 89.876 11.2135 89.876C11.8461 89.876 12.402 90.0293 12.8812 90.336C13.37 90.6427 13.7437 91.0788 14.0025 91.6443C14.2709 92.2002 14.405 92.8519 14.405 93.5994C14.405 94.347 14.2709 95.0035 14.0025 95.569C13.7437 96.1344 13.37 96.5705 12.8812 96.8772C12.402 97.1839 11.8461 97.3372 11.2135 97.3372ZM11.1992 96.7478C12.0138 96.7478 12.6416 96.4747 13.0824 95.9284C13.5329 95.3821 13.7581 94.6058 13.7581 93.5994C13.7581 92.6219 13.5329 91.8551 13.0824 91.2992C12.632 90.7434 12.009 90.4654 11.2135 90.4654C10.4181 90.4654 9.79029 90.7434 9.33026 91.2992C8.8798 91.8455 8.65457 92.6123 8.65457 93.5994C8.65457 94.6154 8.87501 95.3965 9.31588 95.9428C9.75675 96.4795 10.3845 96.7478 11.1992 96.7478Z" fill="black"/>
<path d="M26.2198 90.0485H26.8524L24.3078 97.2366H23.589L21.2888 90.7817L18.9742 97.2366H18.241L15.7252 90.0485H16.3865L18.586 96.5322L20.9294 90.0485H21.6769L23.9484 96.5178L26.2198 90.0485Z" fill="black"/>
<path d="M28.8437 93.4844V93.6138C28.8437 94.6201 29.0785 95.3965 29.5481 95.9428C30.0273 96.4795 30.7078 96.7478 31.5895 96.7478C32.04 96.7478 32.4617 96.6759 32.8546 96.5322C33.2476 96.3788 33.6357 96.1392 34.0191 95.8134L34.3066 96.3309C33.9999 96.6376 33.6022 96.882 33.1134 97.0641C32.6342 97.2462 32.1358 97.3372 31.6183 97.3372C30.5544 97.3372 29.711 97.0066 29.0881 96.3453C28.4747 95.684 28.168 94.7735 28.168 93.6138C28.168 92.8758 28.307 92.2241 28.5849 91.6586C28.8628 91.0932 29.251 90.6571 29.7494 90.3504C30.2573 90.0341 30.8372 89.876 31.4889 89.876C32.409 89.876 33.1278 90.1779 33.6453 90.7817C34.1725 91.3855 34.436 92.2289 34.436 93.3119V93.4844H28.8437ZM31.4889 90.4223C30.7797 90.4223 30.195 90.6427 29.735 91.0836C29.2845 91.5149 29.0018 92.1187 28.8868 92.895H33.8322C33.7747 92.0995 33.5447 91.4909 33.1422 91.0692C32.7396 90.6379 32.1885 90.4223 31.4889 90.4223Z" fill="black"/>
<path d="M39.2954 89.876C39.5637 89.876 39.765 89.8904 39.8992 89.9191L39.8561 90.4654C39.7411 90.4463 39.5494 90.4367 39.281 90.4367C38.7539 90.4367 38.3226 90.5613 37.9872 90.8105C37.6517 91.0501 37.4073 91.3615 37.254 91.7449C37.1006 92.1187 37.024 92.5116 37.024 92.9238V97.2366H36.4345V92.0324C36.4345 91.2849 36.3962 90.6236 36.3195 90.0485H36.8946L36.9952 91.3999C37.1869 90.9015 37.484 90.5229 37.8865 90.2642C38.2986 90.0054 38.7683 89.876 39.2954 89.876Z" fill="black"/>
<path d="M41.3105 93.4844V93.6138C41.3105 94.6201 41.5453 95.3965 42.015 95.9428C42.4942 96.4795 43.1746 96.7478 44.0564 96.7478C44.5068 96.7478 44.9285 96.6759 45.3215 96.5322C45.7144 96.3788 46.1026 96.1392 46.486 95.8134L46.7735 96.3309C46.4668 96.6376 46.069 96.882 45.5803 97.0641C45.101 97.2462 44.6027 97.3372 44.0851 97.3372C43.0213 97.3372 42.1779 97.0066 41.5549 96.3453C40.9415 95.684 40.6348 94.7735 40.6348 93.6138C40.6348 92.8758 40.7738 92.2241 41.0518 91.6586C41.3297 91.0932 41.7179 90.6571 42.2162 90.3504C42.7242 90.0341 43.304 89.876 43.9557 89.876C44.8758 89.876 45.5946 90.1779 46.1122 90.7817C46.6393 91.3855 46.9029 92.2289 46.9029 93.3119V93.4844H41.3105ZM43.9557 90.4223C43.2465 90.4223 42.6619 90.6427 42.2019 91.0836C41.7514 91.5149 41.4687 92.1187 41.3537 92.895H46.2991C46.2416 92.0995 46.0115 91.4909 45.609 91.0692C45.2065 90.6379 44.6554 90.4223 43.9557 90.4223Z" fill="black"/>
<path d="M54.7525 86.6557V97.2366H54.1487V95.799C53.9378 96.2974 53.612 96.6807 53.1711 96.9491C52.7398 97.2079 52.2223 97.3372 51.6185 97.3372C50.9859 97.3372 50.4252 97.1839 49.9365 96.8772C49.4573 96.5609 49.0835 96.1201 48.8151 95.5546C48.5468 94.9795 48.4126 94.3182 48.4126 93.5707C48.4126 92.8327 48.542 92.1858 48.8007 91.6299C49.0691 91.0644 49.4429 90.6331 49.9221 90.336C50.4109 90.0293 50.9763 89.876 51.6185 89.876C52.2223 89.876 52.7398 90.0054 53.1711 90.2642C53.612 90.5229 53.9378 90.9015 54.1487 91.3999V86.6557H54.7525ZM51.6185 96.7478C52.4235 96.7478 53.0465 96.4747 53.4874 95.9284C53.9282 95.3725 54.1487 94.5962 54.1487 93.5994C54.1487 92.6027 53.9282 91.8312 53.4874 91.2849C53.0465 90.7386 52.4283 90.4654 51.6328 90.4654C50.8278 90.4654 50.1952 90.7386 49.7352 91.2849C49.2847 91.8216 49.0595 92.5835 49.0595 93.5707C49.0595 94.5674 49.2847 95.3485 49.7352 95.914C50.1952 96.4699 50.823 96.7478 51.6185 96.7478Z" fill="black"/>
<path d="M64.0109 89.876C64.6434 89.876 65.2041 90.0293 65.6929 90.336C66.1817 90.6331 66.5554 91.0644 66.8142 91.6299C67.0826 92.1858 67.2167 92.8327 67.2167 93.5707C67.2167 94.3182 67.0826 94.9795 66.8142 95.5546C66.5459 96.1201 66.1673 96.5609 65.6785 96.8772C65.1993 97.1839 64.6434 97.3372 64.0109 97.3372C63.3975 97.3372 62.8751 97.2031 62.4439 96.9347C62.0222 96.6664 61.7011 96.2782 61.4806 95.7702V97.2366H60.8768V86.6557H61.4663V91.4718C61.6771 90.9542 61.9982 90.5613 62.4295 90.2929C62.8703 90.015 63.3975 89.876 64.0109 89.876ZM64.0252 96.7478C64.8207 96.7478 65.4389 96.4699 65.8798 95.914C66.3302 95.3485 66.5554 94.5674 66.5554 93.5707C66.5554 92.5835 66.3302 91.8216 65.8798 91.2849C65.4389 90.7386 64.8159 90.4654 64.0109 90.4654C63.1962 90.4654 62.5684 90.7386 62.1276 91.2849C61.6963 91.8216 61.4806 92.5931 61.4806 93.5994C61.4806 94.6058 61.6963 95.3821 62.1276 95.9284C62.5684 96.4747 63.201 96.7478 64.0252 96.7478Z" fill="black"/>
<path d="M75.082 90.0485L71.6892 98.056C71.3633 98.8228 70.9608 99.3835 70.4816 99.7381C70.0024 100.093 69.4034 100.347 68.6846 100.5L68.5696 100.011C69.2596 99.8483 69.7868 99.6326 70.1509 99.3643C70.5151 99.0959 70.817 98.6694 71.0566 98.0848L71.3585 97.3229L68.282 90.0485H68.929L71.6892 96.6903L74.4638 90.0485H75.082Z" fill="black"/>
<path d="M97.045 97.2576V87.3308H101.984C102.512 87.3308 102.976 87.4123 103.391 87.5753C103.807 87.7383 104.174 87.9665 104.462 88.2762C104.766 88.5859 104.99 88.9445 105.15 89.3683C105.309 89.7921 105.389 90.2811 105.389 90.8027V93.7857C105.389 94.3073 105.309 94.7963 105.15 95.2201C104.99 95.6439 104.766 96.0188 104.462 96.3122C104.158 96.6219 103.807 96.8501 103.391 97.0131C102.976 97.1761 102.496 97.2576 101.984 97.2576H97.045ZM101.984 95.8395C102.624 95.8395 103.135 95.6602 103.471 95.3016C103.823 94.943 103.999 94.4377 103.999 93.7857V90.8027C103.999 90.4767 103.951 90.1996 103.871 89.9388C103.775 89.678 103.647 89.4661 103.471 89.2868C103.295 89.1075 103.087 88.9771 102.832 88.8793C102.576 88.7815 102.304 88.7489 101.984 88.7489H98.4358V95.8395H101.984Z" fill="black"/>
<path d="M107.404 87.3296H114.31V88.7477H108.758V91.5839H113.486V93.002H108.758V95.8383H114.31V97.2564H107.404V87.3296Z" fill="black"/>
<path d="M117.619 87.3296V97.2564H116.324V87.3296H117.619Z" fill="black"/>
<path d="M119.776 97.2564V87.3296H125.055C126.608 87.3296 127.401 88.1283 127.401 89.742V91.1601C127.401 92.7738 126.624 93.5726 125.055 93.5726H121.155V97.2564H119.776ZM121.155 92.1544H124.991C125.356 92.1544 125.625 92.0729 125.784 91.9099C125.943 91.7469 126.022 91.4698 126.022 91.0949V89.8235C126.022 89.4486 125.943 89.1715 125.784 89.0085C125.625 88.8455 125.356 88.764 124.991 88.764H121.155V92.1544Z" fill="black"/>
<path fill-rule="evenodd" clip-rule="evenodd" d="M86.3119 87.4097C86.3119 87.2041 86.4786 87.0375 86.6842 87.0375H92.3982C92.6038 87.0375 92.7705 87.2041 92.7705 87.4097C92.7705 87.6153 92.6038 87.782 92.3982 87.782H86.6842C86.4786 87.782 86.3119 87.6153 86.3119 87.4097Z" fill="black"/>
<path fill-rule="evenodd" clip-rule="evenodd" d="M82.9015 89.2559C82.9015 89.0503 83.0681 88.8836 83.2737 88.8836H89.1408C89.3464 88.8836 89.513 89.0503 89.513 89.2559C89.513 89.4615 89.3464 89.6281 89.1408 89.6281H83.2737C83.0681 89.6281 82.9015 89.4615 82.9015 89.2559Z" fill="black"/>
<path fill-rule="evenodd" clip-rule="evenodd" d="M82.9825 95.6268C82.9825 95.4213 83.1491 95.2546 83.3547 95.2546H89.0688C89.2744 95.2546 89.441 95.4213 89.441 95.6268C89.441 95.8324 89.2744 95.9991 89.0688 95.9991H83.3547C83.1491 95.9991 82.9825 95.8324 82.9825 95.6268Z" fill="black"/>
<path fill-rule="evenodd" clip-rule="evenodd" d="M92.8065 97.3177C92.8069 97.5233 92.6406 97.6904 92.4351 97.6908L86.685 97.7036C86.4794 97.7041 86.3124 97.5378 86.3119 97.3322C86.3115 97.1266 86.4777 96.9595 86.6833 96.9591L92.4334 96.9463C92.639 96.9458 92.806 97.1121 92.8065 97.3177Z" fill="black"/>
<path fill-rule="evenodd" clip-rule="evenodd" d="M83.0016 88.8355C83.1907 88.7548 83.4094 88.8427 83.4901 89.0318L86.9283 97.087C87.009 97.2761 86.9212 97.4948 86.7321 97.5755C86.543 97.6562 86.3243 97.5683 86.2436 97.3792L82.8054 89.3241C82.7247 89.135 82.8125 88.9163 83.0016 88.8355Z" fill="black"/>
<path fill-rule="evenodd" clip-rule="evenodd" d="M88.9688 88.931C89.1581 88.8509 89.3765 88.9395 89.4566 89.1289L92.8228 97.0881C92.9029 97.2775 92.8143 97.4959 92.625 97.576C92.4356 97.656 92.2172 97.5675 92.1371 97.3781L88.7709 89.4189C88.6908 89.2295 88.7794 89.0111 88.9688 88.931Z" fill="black"/>
<path fill-rule="evenodd" clip-rule="evenodd" d="M83.205 96.0066C83.3956 96.0835 83.6125 95.9913 83.6894 95.8006L86.9484 87.7214C87.0253 87.5307 86.9331 87.3138 86.7424 87.2369C86.5518 87.16 86.3349 87.2522 86.258 87.4429L82.999 95.5221C82.9221 95.7128 83.0143 95.9297 83.205 96.0066Z" fill="black"/>
<path fill-rule="evenodd" clip-rule="evenodd" d="M88.9388 95.9632C89.1295 96.0399 89.3463 95.9476 89.4231 95.7568L92.7271 87.5487C92.8038 87.358 92.7115 87.1411 92.5207 87.0644C92.33 86.9876 92.1132 87.08 92.0364 87.2707L88.7324 95.4788C88.6557 95.6696 88.748 95.8864 88.9388 95.9632Z" fill="black"/>
<path fill-rule="evenodd" clip-rule="evenodd" d="M87.0171 87.2432C87.1091 87.4271 87.0345 87.6507 86.8506 87.7427L83.3142 89.5109C83.1303 89.6028 82.9067 89.5283 82.8148 89.3444C82.7228 89.1605 82.7974 88.9369 82.9813 88.845L86.5177 87.0768C86.7016 86.9848 86.9252 87.0594 87.0171 87.2432Z" fill="black"/>
<path fill-rule="evenodd" clip-rule="evenodd" d="M92.7069 87.2284C92.807 87.408 92.7426 87.6347 92.563 87.7348L89.2681 89.572C89.0885 89.6721 88.8618 89.6077 88.7616 89.4282C88.6615 89.2486 88.7259 89.0219 88.9055 88.9217L92.2005 87.0846C92.38 86.9845 92.6067 87.0489 92.7069 87.2284Z" fill="black"/>
<path fill-rule="evenodd" clip-rule="evenodd" d="M87.0171 97.4978C87.1091 97.3139 87.0345 97.0903 86.8506 96.9984L83.5107 95.3284C83.3268 95.2365 83.1032 95.311 83.0113 95.4949C82.9193 95.6788 82.9938 95.9024 83.1777 95.9943L86.5177 97.6643C86.7016 97.7562 86.9252 97.6817 87.0171 97.4978Z" fill="black"/>
<path fill-rule="evenodd" clip-rule="evenodd" d="M92.8113 97.4868C92.9042 97.3034 92.8309 97.0794 92.6475 96.9865L89.255 95.2678C89.0716 95.1749 88.8476 95.2482 88.7547 95.4316C88.6618 95.615 88.7351 95.839 88.9185 95.9319L92.311 97.6506C92.4944 97.7435 92.7184 97.6702 92.8113 97.4868Z" fill="black"/>
<path d="M141.804 92.1156C142.009 92.1795 142.197 92.2709 142.366 92.3896C142.534 92.5083 142.678 92.6612 142.797 92.8484C142.916 93.031 143.007 93.2479 143.071 93.499C143.135 93.7501 143.167 94.0377 143.167 94.3619V94.8549C143.167 96.4437 142.372 97.2381 140.784 97.2381H135.408V87.4177H140.503C142.092 87.4177 142.886 88.2144 142.886 89.8078V89.9858C142.886 90.5382 142.797 90.9902 142.619 91.3418C142.445 91.6888 142.174 91.9467 141.804 92.1156ZM136.784 92.958V95.8616H140.743C141.112 95.8616 141.379 95.7749 141.544 95.6014C141.708 95.4279 141.79 95.1563 141.79 94.7865V94.0263C141.79 93.6519 141.708 93.3803 141.544 93.2114C141.379 93.0424 141.112 92.958 140.743 92.958H136.784ZM136.784 88.7942V91.5883H140.558C140.895 91.5746 141.137 91.4833 141.284 91.3144C141.434 91.1409 141.51 90.8761 141.51 90.52V89.8763C141.51 89.5019 141.427 89.2279 141.263 89.0545C141.099 88.881 140.832 88.7942 140.462 88.7942H136.784Z" fill="black"/>
<path d="M146.673 87.4177V95.8342H151.72V97.2381H145.269V87.4177H146.673Z" fill="black"/>
<path d="M161.821 95.8342C161.821 96.026 161.785 96.2086 161.712 96.3821C161.639 96.551 161.538 96.6994 161.411 96.8272C161.283 96.9551 161.132 97.0555 160.959 97.1286C160.79 97.2016 160.609 97.2381 160.418 97.2381H154.809C154.617 97.2381 154.434 97.2016 154.261 97.1286C154.092 97.0555 153.944 96.9551 153.816 96.8272C153.688 96.6994 153.588 96.551 153.515 96.3821C153.441 96.2086 153.405 96.026 153.405 95.8342V88.8216C153.405 88.6299 153.441 88.4495 153.515 88.2806C153.588 88.1071 153.688 87.9587 153.816 87.8355C153.944 87.7076 154.092 87.6072 154.261 87.5341C154.434 87.4565 154.617 87.4177 154.809 87.4177H160.418C160.609 87.4177 160.79 87.4565 160.959 87.5341C161.132 87.6072 161.283 87.7076 161.411 87.8355C161.538 87.9587 161.639 88.1071 161.712 88.2806C161.785 88.4495 161.821 88.6299 161.821 88.8216V95.8342ZM154.809 88.8216V95.8342H160.418V88.8216H154.809Z" fill="black"/>
<path d="M164.348 88.8216C164.348 88.6299 164.385 88.4495 164.458 88.2806C164.531 88.1071 164.632 87.9587 164.759 87.8355C164.887 87.7076 165.036 87.6072 165.204 87.5341C165.378 87.4565 165.561 87.4177 165.752 87.4177H171.08C171.272 87.4177 171.452 87.4565 171.621 87.5341C171.795 87.6072 171.945 87.7076 172.073 87.8355C172.201 87.9587 172.302 88.1071 172.375 88.2806C172.448 88.4495 172.484 88.6299 172.484 88.8216V90.0885H171.08V88.8216H165.752V95.8342H171.08V94.5742H172.484V95.8342C172.484 96.026 172.448 96.2086 172.375 96.3821C172.302 96.551 172.201 96.6994 172.073 96.8272C171.945 96.9551 171.795 97.0555 171.621 97.1286C171.452 97.2016 171.272 97.2381 171.08 97.2381H165.752C165.561 97.2381 165.378 97.2016 165.204 97.1286C165.036 97.0555 164.887 96.9551 164.759 96.8272C164.632 96.6994 164.531 96.551 164.458 96.3821C164.385 96.2086 164.348 96.026 164.348 95.8342V88.8216Z" fill="black"/>
<path d="M176.134 87.4177V91.6568L180.819 87.4177H182.798L177.483 92.2321L183.01 97.2381H181.031L176.134 92.821V97.2381H174.73V87.4177H176.134Z" fill="black"/>
<path d="M184.291 88.8216C184.291 88.6299 184.327 88.4495 184.4 88.2806C184.473 88.1071 184.574 87.9587 184.701 87.8355C184.829 87.7076 184.978 87.6072 185.147 87.5341C185.32 87.4565 185.503 87.4177 185.694 87.4177H191.022C191.214 87.4177 191.395 87.4565 191.563 87.5341C191.737 87.6072 191.888 87.7076 192.015 87.8355C192.143 87.9587 192.244 88.1071 192.317 88.2806C192.39 88.4495 192.426 88.6299 192.426 88.8216V90.0885H191.022V88.8216H185.694V95.8342H191.022V94.5742H192.426V95.8342C192.426 96.026 192.39 96.2086 192.317 96.3821C192.244 96.551 192.143 96.6994 192.015 96.8272C191.888 96.9551 191.737 97.0555 191.563 97.1286C191.395 97.2016 191.214 97.2381 191.022 97.2381H185.694C185.503 97.2381 185.32 97.2016 185.147 97.1286C184.978 97.0555 184.829 96.9551 184.701 96.8272C184.574 96.6994 184.473 96.551 184.4 96.3821C184.327 96.2086 184.291 96.026 184.291 95.8342V88.8216Z" fill="black"/>
<path d="M203.103 87.4177V97.2381H201.699V93.0333H196.076V97.2381H194.673V87.4177H196.076V91.6294H201.699V87.4177H203.103Z" fill="black"/>
<path d="M209.978 87.4177L213.766 97.2381H212.362L211.492 94.9782H207.061L206.191 97.2381H204.787L208.575 87.4177H209.978ZM207.595 93.5743H210.951L209.28 89.2462L207.595 93.5743Z" fill="black"/>
<path d="M216.854 87.4177V97.2381H215.45V87.4177H216.854Z" fill="black"/>
<path d="M220.785 97.2381H219.381V87.4177H220.785L226.688 95.033V87.4177H228.092V97.2381H226.688L220.785 89.6229V97.2381Z" fill="black"/>
</svg>
