<svg width="471" height="583" viewBox="0 0 471 583" fill="none" xmlns="http://www.w3.org/2000/svg">
<g opacity="0.5">
<path d="M510.718 132.838C509.922 123.018 501.31 115.702 491.483 116.498C481.656 117.294 474.335 125.9 475.132 135.721C475.928 145.541 484.54 152.857 494.367 152.061C504.194 151.265 511.514 142.659 510.718 132.838Z" stroke="url(#paint0_linear)" stroke-width="6" stroke-linecap="round" stroke-linejoin="round"/>
<path d="M509.572 111.327C521.813 120.196 524.058 138.648 515.897 150.881C507.226 163.93 487.742 165.459 476.316 157.202C464.891 148.944 460.301 129.881 469.992 117.647C479.071 106.128 497.433 102.458 509.572 111.327Z" stroke="url(#paint1_linear)" stroke-width="5.8659" stroke-linecap="round" stroke-linejoin="round"/>
<path d="M531.744 132.075C530.532 110.658 512.177 94.2782 490.746 95.4888C469.315 96.6994 452.924 115.043 454.135 136.459C455.347 157.876 473.702 174.256 495.133 173.046C516.564 171.835 532.955 153.492 531.744 132.075Z" stroke="url(#paint2_linear)" stroke-width="5.7317" stroke-linecap="round" stroke-linejoin="round"/>
<path d="M540.635 121.233C533.417 94.8828 506.211 79.3593 479.868 86.5606C453.524 93.7619 438.02 120.961 445.238 147.312C452.456 173.662 479.663 189.186 506.006 181.984C532.349 174.783 547.853 147.584 540.635 121.233Z" stroke="url(#paint3_linear)" stroke-width="4.3902" stroke-linecap="round" stroke-linejoin="round"/>
<path d="M528.138 85.74C554.253 104.6 559.558 143.338 541.502 169.436C522.732 196.553 483.049 201.14 457.75 182.79C432.349 164.441 424.393 125.294 444.387 99.0947C463.667 73.8126 502.023 66.8805 528.138 85.74Z" stroke="url(#paint4_linear)" stroke-width="5.4634" stroke-linecap="round" stroke-linejoin="round"/>
<path d="M534.36 77.1763C564.964 99.298 572.716 145.173 550.07 175.654C527.831 205.625 481.926 213.373 451.527 191.353C421.23 169.435 414.191 123.255 435.817 92.8756C457.852 61.9867 503.757 55.0545 534.36 77.1763Z" stroke="url(#paint5_linear)" stroke-width="5.3293" stroke-linecap="round" stroke-linejoin="round"/>
<path d="M540.583 68.7147C575.879 94.9142 584.55 146.09 558.64 181.872C532.729 217.654 481.111 225.81 445.407 199.916C409.499 173.921 402.562 122.337 427.351 86.7588C452.242 51.0785 504.879 42.2094 540.583 68.7147Z" stroke="url(#paint6_linear)" stroke-width="5.1951" stroke-linecap="round" stroke-linejoin="round"/>
<path d="M547.01 60.1516C586.794 89.9191 596.69 147.211 567.208 187.989C537.931 228.461 479.682 237.635 439.286 208.378C397.665 178.202 393.585 122.541 419.394 80.8462C445.815 38.0298 506.919 30.1802 547.01 60.1516Z" stroke="url(#paint7_linear)" stroke-width="5.061" stroke-linecap="round" stroke-linejoin="round"/>
<path d="M553.131 51.5885C596.894 84.7202 607.605 149.047 575.675 194.208C543.542 239.674 477.03 248.849 432.961 216.941C386.444 183.3 384.608 122.337 411.743 75.3414C424.8 52.8118 438.98 37.3164 466.115 33.3406C494.576 29.0589 529.974 34.0542 553.131 51.5885Z" stroke="url(#paint8_linear)" stroke-width="4.9268" stroke-linecap="round" stroke-linejoin="round"/>
<path d="M559.048 43.1277C607.197 79.0119 619.031 150.984 584.143 200.427C548.541 250.787 475.501 260.675 426.739 225.505C373.489 187.072 379.712 123.765 404.501 70.1428C416.742 43.7394 426.943 27.2245 458.465 22.739C491.006 18.2535 532.627 23.3506 559.048 43.1277Z" stroke="url(#paint9_linear)" stroke-width="4.7927" stroke-linecap="round" stroke-linejoin="round"/>
<path d="M565.27 34.5637C619.03 73.5062 632.19 152.92 592.711 206.543C553.641 259.655 474.378 273.927 420.618 233.966C395.727 215.514 375.427 187.479 374.407 155.673C373.387 124.478 388.28 93.8949 397.053 65.2488C406.642 33.6462 413.171 16.8256 449.997 12.2381C488.353 7.44675 533.136 11.3206 565.27 34.5637Z" stroke="url(#paint10_linear)" stroke-width="4.6585" stroke-linecap="round" stroke-linejoin="round"/>
<path d="M571.493 26.0005C629.945 68.3071 644.125 154.45 601.28 212.659C558.843 270.461 472.644 284.632 414.497 242.427C388.178 223.363 364.92 191.455 364.818 157.712C364.716 123.561 383.792 93.1814 389.402 60.2536C391.647 46.797 389.912 29.4666 398.481 18.0489C407.764 5.61175 427.147 3.26711 441.224 1.53407C484.069 -3.56312 535.381 -0.0970516 571.493 26.0005Z" stroke="url(#paint11_linear)" stroke-width="4.5244" stroke-linecap="round" stroke-linejoin="round"/>
<path d="M577.613 17.5391C641.269 63.6176 655.856 155.367 609.747 218.98C563.74 282.491 471.726 296.457 408.275 251.092C379.915 230.805 354.107 196.144 354.821 159.852C355.535 123.459 378.691 91.4483 381.548 55.4622C382.568 42.4134 378.793 23.8596 384.302 11.6264C391.851 -5.1943 416.231 -7.13121 432.043 -8.86425C479.887 -14.2673 537.319 -11.7187 577.613 17.5391Z" stroke="url(#paint12_linear)" stroke-width="4.3902" stroke-linecap="round" stroke-linejoin="round"/>
<path d="M583.836 8.97652C652.082 58.4192 667.792 156.897 618.316 225.097C568.841 293.297 470.196 308.385 402.052 259.554C372.265 238.248 342.988 200.325 345.028 161.79C347.068 123.051 373.081 89.6139 373.795 50.3656C374.101 35.9916 366.858 13.7679 373.183 -0.0964808C380.834 -16.9172 407.561 -17.9366 423.066 -19.5677C476.01 -25.0727 539.155 -23.3396 583.836 8.97652Z" stroke="url(#paint13_linear)" stroke-width="4.2561" stroke-linecap="round" stroke-linejoin="round"/>
<path d="M589.957 0.411732C662.895 53.2185 679.625 158.322 626.783 231.212C573.941 304.102 468.767 320.821 395.829 268.014C364.308 245.178 331.766 204.707 334.724 163.522C337.683 122.031 366.552 87.8794 365.94 45.0631C365.736 28.956 357.065 7.85364 361.349 -8.04957C366.756 -27.9286 398.277 -28.7441 414.395 -30.2733C472.44 -35.6763 541.093 -34.9627 589.957 0.411732Z" stroke="url(#paint14_linear)" stroke-width="4.122" stroke-linecap="round" stroke-linejoin="round"/>
<path d="M596.18 -8.04795C673.811 48.123 691.663 159.955 635.352 237.534C579.144 315.113 467.238 332.953 389.607 276.681C356.657 252.826 320.341 208.684 324.218 165.358C328.196 121.013 359.514 86.148 358.391 39.7636C357.983 23.1468 346.15 -3.66438 351.761 -19.4656C358.697 -39.0388 390.117 -39.0388 407.051 -40.568C469.38 -46.3788 543.542 -46.1749 596.18 -8.04795Z" stroke="url(#paint15_linear)" stroke-width="3.9878" stroke-linecap="round" stroke-linejoin="round"/>
<path d="M602.403 -16.6112C684.726 43.0258 703.598 161.382 643.921 243.651C584.244 325.919 465.809 344.779 383.486 285.142C348.802 260.064 309.63 212.66 313.608 166.785C315.445 145.683 326.87 126.722 334.827 107.556C344.62 83.9052 351.149 59.7446 350.944 33.9529C350.74 14.7875 340.335 -7.43625 342.886 -26.0919C346.15 -49.7429 383.18 -49.539 401.032 -51.0681C467.849 -57.0828 545.888 -57.4906 602.403 -16.6112Z" stroke="url(#paint16_linear)" stroke-width="3.8537" stroke-linecap="round" stroke-linejoin="round"/>
<path d="M608.523 -25.1744C694.824 37.8267 715.431 162.911 652.388 249.767C589.447 336.623 464.177 356.604 377.263 293.603C340.947 267.302 298.816 216.33 302.795 168.111C304.529 147.11 315.342 128.964 323.605 110.207C335.132 84.1091 342.681 56.2785 343.293 27.7343C343.701 7.24359 333.602 -15.4898 336.05 -35.3688C339.111 -60.345 378.283 -60.1411 397.053 -61.7722C467.033 -67.6849 549.56 -68.1946 608.523 -25.1744Z" stroke="url(#paint17_linear)" stroke-width="3.7195" stroke-linecap="round" stroke-linejoin="round"/>
<path d="M614.746 -33.6365C705.842 32.321 726.244 164.848 660.957 255.985C595.058 347.939 462.035 367.818 371.143 302.166C331.766 273.724 289.635 221.121 292.288 169.639C293.512 146.294 303.713 126.109 313.404 105.313C325.85 78.8074 333.5 50.5689 335.643 21.3111C337.275 -0.300946 329.318 -22.015 331.052 -43.1173C333.194 -70.6421 376.651 -70.6421 396.543 -72.4771C469.175 -78.6956 553.641 -77.8801 614.746 -33.6365Z" stroke="url(#paint18_linear)" stroke-width="3.5854" stroke-linecap="round" stroke-linejoin="round"/>
<path d="M620.968 -42.1993C716.757 27.1224 738.18 166.377 669.526 262.204C600.26 358.847 460.199 379.745 364.92 310.73C322.483 279.943 280.965 225.913 281.067 170.965C281.169 146.193 289.432 123.561 300.245 101.643C313.71 74.3223 323.095 44.8606 327.38 14.6852C330.542 -7.43653 323.911 -30.7816 327.482 -52.1898C332.276 -80.5301 375.529 -81.5495 397.462 -83.4865C472.236 -90.1128 558.333 -87.4623 620.968 -42.1993Z" stroke="url(#paint19_linear)" stroke-width="3.4512" stroke-linecap="round" stroke-linejoin="round"/>
<path d="M627.089 -50.6602C727.672 22.1275 750.013 167.805 677.993 268.423C605.361 369.959 458.566 391.571 358.697 319.293C312.792 286.06 272.804 230.5 269.743 172.087C266.581 113.571 305.345 63.2108 318.709 7.54961C324.115 -14.9799 320.137 -40.7716 326.666 -62.3837C335.337 -90.724 376.141 -92.7629 400.318 -95.0056C476.316 -101.836 563.638 -96.6367 627.089 -50.6602Z" stroke="url(#paint20_linear)" stroke-width="3.3171" stroke-linecap="round" stroke-linejoin="round"/>
<path d="M633.312 -59.2243C738.179 16.214 762.152 170.353 686.664 274.539C611.073 378.624 457.036 404.415 352.576 327.754C302.999 291.36 265.153 234.985 258.216 173.105C251.075 108.371 288.921 58.0109 308.916 0.208866C316.668 -22.4226 317.791 -49.0299 326.87 -71.0497C339.009 -100.206 377.161 -104.181 404.5 -106.628C481.825 -113.56 568.841 -105.609 633.312 -59.2243Z" stroke="url(#paint21_linear)" stroke-width="3.1829" stroke-linecap="round" stroke-linejoin="round"/>
<path d="M639.432 -67.7875C748.992 11.6266 775.107 171.168 695.13 280.656C615.562 389.532 455.914 415.629 346.456 336.317C293.41 297.884 257.604 238.859 246.79 174.227C241.792 144.255 240.466 114.895 252.401 86.4532C265.867 54.239 287.085 26.2045 298.918 -6.82522C307.181 -29.6606 316.26 -55.8601 327.277 -77.5741C342.885 -108.463 378.385 -115.599 409.907 -118.352C487.639 -125.182 574.859 -114.58 639.432 -67.7875Z" stroke="url(#paint22_linear)" stroke-width="3.0488" stroke-linecap="round" stroke-linejoin="round"/>
<path d="M645.655 -76.3517C759.907 6.42657 787.043 172.697 703.699 286.873C620.764 400.439 454.383 427.556 340.233 344.879C283.412 303.694 250.156 243.242 235.365 175.449C228.53 144.152 222.307 111.327 234.753 80.6416C248.422 47.0002 275.557 20.4948 289.227 -13.4524C299.224 -38.2247 314.526 -64.7301 329.725 -87.0557C349.822 -116.619 381.343 -127.222 415.721 -130.178C493.556 -137.008 581.387 -122.838 645.655 -76.3517Z" stroke="url(#paint23_linear)" stroke-width="2.9146" stroke-linecap="round" stroke-linejoin="round"/>
<path d="M651.878 -84.8112C770.721 1.33114 798.978 174.329 712.268 293.094C625.865 411.246 452.854 439.485 334.01 353.444C273.518 309.609 242.608 247.423 224.144 176.674C215.677 144.154 203.844 107.556 216.595 74.5267C222.716 58.7254 234.957 46.696 245.668 33.8511C259.644 17.2343 271.477 0.107824 280.25 -19.7712C292.084 -46.6843 310.752 -67.5827 328.808 -90.622C353.29 -121.817 382.16 -138.637 421.944 -142.205C499.269 -149.138 588.325 -130.788 651.878 -84.8112Z" stroke="url(#paint24_linear)" stroke-width="2.7805" stroke-linecap="round" stroke-linejoin="round"/>
<path d="M657.999 -93.3755C781.535 -3.86893 810.812 175.756 720.736 299.21C631.068 422.052 451.324 451.411 327.89 361.905C263.827 315.521 234.958 251.602 213.331 177.999C203.436 144.459 185.38 103.478 199.05 68.6131C205.884 51.0787 221.594 39.2532 234.448 26.2045C249.749 10.709 262.705 -5.70386 271.988 -25.4809C280.557 -43.8308 288.616 -59.2243 304.223 -72.477C313.404 -80.3267 321.871 -88.1763 330.134 -97.1474C357.881 -127.323 385.424 -150.566 427.963 -154.236C504.778 -160.964 595.364 -138.74 657.999 -93.3755Z" stroke="url(#paint25_linear)" stroke-width="2.6463" stroke-linecap="round" stroke-linejoin="round"/>
<path d="M664.221 -101.938C792.96 -8.65995 822.747 176.674 729.305 305.428C635.964 434.081 450.406 463.135 321.667 370.468C290.248 347.837 263.215 318.477 243.118 285.244C222.818 251.704 214.147 216.432 202.518 179.528C192.011 146.294 167.63 100.929 180.687 65.2492C187.93 45.3701 207.924 33.5447 223.328 20.292C240.262 5.61212 254.544 -10.2911 264.337 -30.4759C272.906 -48.0102 279.842 -64.3212 295.96 -76.4525C307.284 -85.0157 319.117 -91.2343 329.42 -101.225C360.635 -131.298 387.464 -161.575 433.268 -165.857C509.47 -173.095 602.504 -146.692 664.221 -101.938Z" stroke="url(#paint26_linear)" stroke-width="2.5122" stroke-linecap="round" stroke-linejoin="round"/>
<path d="M670.342 -110.399C803.671 -13.7559 834.58 178.306 737.771 311.648C641.065 444.888 448.875 475.777 315.444 379.033C282.801 355.382 254.952 325.207 234.039 290.75C213.025 255.987 204.456 219.287 192.113 181.16C180.687 145.99 148.146 93.2849 166.508 55.6677C174.771 38.6431 195.479 28.041 210.067 17.3369C229.857 2.8609 246.587 -13.0423 257.604 -35.2661C266.377 -53.1062 273.722 -70.2327 290.962 -81.9562C303.509 -90.4175 316.465 -95.005 328.094 -105.199C361.962 -134.967 389.199 -173.298 437.552 -177.579C477.54 -181.147 517.937 -170.647 556.497 -161.268C597.71 -151.278 635.964 -135.375 670.342 -110.399Z" stroke="url(#paint27_linear)" stroke-width="2.378" stroke-linecap="round" stroke-linejoin="round"/>
<path d="M676.565 -118.962C814.586 -18.8538 846.516 179.732 746.34 317.764C646.267 455.694 447.447 487.602 309.324 387.494C276.17 363.537 247.811 333.056 226.388 298.293C203.742 261.593 195.071 223.16 182.014 182.893C170.282 146.601 134.068 92.6726 151.512 53.7301C160.285 34.1569 184.564 23.6567 201.498 12.6468C222.512 -1.11558 240.976 -16.611 251.585 -39.4464C259.542 -56.4709 266.785 -74.7189 283.209 -85.5249C297.694 -95.1076 313.608 -98.2679 327.38 -109.686C363.084 -139.249 390.219 -184.104 440.306 -188.794C480.907 -192.566 522.119 -180.434 561.19 -171.056C602.81 -161.065 641.779 -144.142 676.565 -118.962Z" stroke="url(#paint28_linear)" stroke-width="2.2439" stroke-linecap="round" stroke-linejoin="round"/>
<path d="M682.787 -127.527C825.501 -24.1557 858.451 181.261 754.909 323.982C651.47 466.601 445.917 499.529 303.101 396.056C267.499 370.264 237.202 337.337 214.759 299.515C193.133 262.918 184.258 224.893 172.118 184.727C160.897 147.517 119.685 90.0212 138.659 50.0593C148.044 30.1803 172.322 20.8015 190.174 10.6071C213.433 -2.74749 234.447 -18.6507 245.771 -43.6269C253.83 -61.467 258.216 -81.244 276.782 -91.2345C291.064 -98.8803 306.773 -100.409 320.443 -109.992C361.043 -138.638 386.954 -194.503 440.918 -199.805C481.825 -203.78 524.058 -190.426 563.638 -181.353C606.483 -171.362 647.083 -153.42 682.787 -127.527Z" stroke="url(#paint29_linear)" stroke-width="2.1098" stroke-linecap="round" stroke-linejoin="round"/>
<path d="M688.908 -135.988C836.315 -29.2534 870.284 182.891 763.376 330.2C656.57 477.407 444.387 511.354 296.98 404.619C260.256 378.012 228.837 343.962 205.782 304.918C183.442 267.199 173.955 227.951 162.121 186.358C150.798 146.599 108.259 91.0402 128.151 48.2239C138.047 27.0196 162.937 18.1505 182.217 7.75222C206.292 -5.09268 230.673 -21.4037 239.65 -47.7052C245.669 -65.0356 248.015 -86.4438 266.275 -95.9245C284.229 -105.303 302.489 -103.366 319.933 -115.905C360.329 -145.163 385.934 -203.985 439.592 -210.917C481.315 -216.32 525.69 -200.723 566.086 -191.548C610.257 -181.557 652.184 -162.698 688.908 -135.988Z" stroke="url(#paint30_linear)" stroke-width="1.9756" stroke-linecap="round" stroke-linejoin="round"/>
<path d="M695.131 -144.551C847.23 -34.4514 882.22 184.32 771.945 336.318C661.773 488.316 442.857 523.282 290.758 413.081C253.524 386.066 221.9 351.813 198.029 312.463C173.955 272.807 164.366 231.825 152.022 187.888C140.189 145.683 95.3039 91.6529 119.277 46.39C144.473 -1.11579 218.738 2.9619 232.305 -52.8013C236.386 -69.7239 236.386 -92.7631 254.442 -102.142C272.09 -111.317 293.104 -106.322 310.854 -117.026C357.881 -145.06 379.814 -214.688 438.164 -223.659C480.295 -230.183 527.526 -211.018 568.331 -201.945C614.032 -191.649 657.284 -171.973 695.131 -144.551Z" stroke="url(#paint31_linear)" stroke-width="1.8415" stroke-linecap="round" stroke-linejoin="round"/>
<path d="M701.353 -153.115C858.043 -39.6515 894.155 185.848 780.514 342.535C666.976 499.121 441.326 535.107 284.535 421.643C244.751 392.895 211.087 355.89 186.298 313.583C163.04 273.927 153.756 233.354 141.719 189.824C129.988 147.007 86.735 101.031 106.729 54.2386C129.988 -0.301284 215.269 3.67455 223.532 -58.3072C226.185 -78.1862 223.736 -103.774 247.199 -111.624C267.601 -118.454 287.697 -111.42 307.386 -122.736C356.453 -151.076 377.263 -226.616 437.246 -237.32C458.872 -241.194 480.091 -235.995 500.697 -229.878C524.874 -222.742 548.642 -217.135 573.125 -211.528C619.234 -201.028 662.997 -180.843 701.353 -153.115Z" stroke="url(#paint32_linear)" stroke-width="1.7073" stroke-linecap="round" stroke-linejoin="round"/>
<path d="M707.474 -161.677C868.856 -44.7478 905.988 187.48 789.083 348.653C672.076 509.927 439.796 547.035 278.414 430.208C238.222 401.052 204.048 363.842 178.647 321.23C154.164 280.045 143.351 237.534 131.416 191.659C120.092 148.231 71.739 103.376 98.058 56.0745C126.825 4.38908 211.189 -1.5237 213.331 -65.0346C213.943 -84.3019 208.842 -112.234 231.897 -120.594C255.258 -129.157 280.658 -117.23 303.509 -130.177C354.515 -158.925 375.325 -240.48 436.226 -251.897C459.178 -256.179 480.907 -249.349 502.431 -241.805C525.996 -233.547 548.846 -227.737 573.125 -222.232C621.58 -211.528 667.383 -190.629 707.474 -161.677Z" stroke="url(#paint33_linear)" stroke-width="1.5732" stroke-linecap="round" stroke-linejoin="round"/>
<path d="M713.696 -170.139C879.159 -49.8455 917.923 189.008 797.55 354.871C677.278 520.733 438.164 558.962 272.191 438.668C232.203 409.716 198.029 373.017 172.22 331.016C145.391 287.282 133.558 242.529 121.112 193.494C109.483 147.925 59.4976 111.939 88.5708 61.477C119.072 8.67019 205.272 -5.29612 201.701 -72.5789C200.681 -90.8268 193.03 -122.124 215.371 -131.095C240.67 -141.187 270.151 -125.59 295.654 -137.415C322.585 -149.852 342.885 -178.6 360.941 -201.028C380.527 -225.392 402.46 -260.767 435.409 -267.597C459.28 -272.49 482.641 -263.01 504.267 -254.039C527.322 -244.558 549.152 -238.441 573.431 -233.14C623.824 -222.13 672.076 -200.416 713.696 -170.139Z" stroke="url(#paint34_linear)" stroke-width="1.439" stroke-linecap="round" stroke-linejoin="round"/>
<path d="M719.919 -178.703C889.972 -54.9432 929.859 190.435 806.119 361.089C682.481 531.641 436.736 570.889 265.969 447.231C222.818 415.935 186.094 375.871 159.265 329.894C134.068 286.67 123.867 242.63 110.912 195.227C98.9763 151.187 48.4806 119.992 76.9418 70.3456C94.3857 39.9664 125.907 19.0679 152.532 -2.4422C180.891 -25.2776 193.439 -44.545 188.746 -80.8369C186.196 -100.512 175.689 -134.153 200.58 -143.43C228.225 -153.829 260.664 -137.314 289.431 -146.896C318.811 -156.683 339.519 -185.635 357.779 -209.082C377.467 -234.364 400.522 -275.753 434.594 -283.297C459.178 -288.802 483.457 -276.773 504.981 -266.476C528.444 -255.262 550.581 -248.84 575.777 -243.335C627.599 -232.019 677.177 -209.694 719.919 -178.703Z" stroke="url(#paint35_linear)" stroke-width="1.3049" stroke-linecap="round" stroke-linejoin="round"/>
<path d="M726.04 -187.265C900.99 -60.6513 940.57 192.373 814.688 367.206C688.092 542.957 434.492 582.001 259.848 455.795C216.901 424.804 180.279 385.148 152.94 339.783C125.193 293.909 114.278 247.728 100.608 196.96C94.9977 175.96 82.0422 163.625 69.6988 146.906C51.4388 122.236 54.3971 94.9146 71.7391 70.2443C93.0594 39.8651 124.275 18.0492 151.206 -6.82507C178.953 -32.4129 181.605 -54.025 175.077 -89.5014C171.302 -110.298 157.939 -148.017 186.094 -157.396C214.963 -167.08 250.463 -151.483 280.658 -156.478C313.506 -161.881 334.928 -190.528 353.903 -215.504C374.509 -242.621 398.38 -290.126 434.083 -298.894C459.892 -305.214 485.089 -290.126 506.92 -278.301C531.402 -265.048 553.743 -259.034 580.47 -253.019C632.802 -241.295 682.787 -218.562 726.04 -187.265Z" stroke="url(#paint36_linear)" stroke-width="1.1707" stroke-linecap="round" stroke-linejoin="round"/>
<path d="M732.262 -195.727C911.904 -65.8505 952.403 194.004 823.155 373.425C693.294 553.865 432.961 593.827 253.625 464.358C208.128 431.532 169.67 389.226 141.209 340.905C114.482 295.438 103.363 248.849 90.203 198.591C83.9803 175.144 68.4746 166.275 54.9071 147.925C39.6054 127.129 45.012 102.764 58.3755 82.0697C82.3482 45.0642 119.99 19.8841 149.676 -12.0243C175.587 -39.753 169.466 -64.9331 160.591 -99.1861C154.674 -122.225 139.577 -162.697 171.71 -171.77C204.354 -181.047 242.506 -164.226 276.17 -167.386C312.384 -170.852 333.704 -199.804 353.902 -227.329C373.489 -254.038 398.379 -305.418 433.369 -314.899C458.566 -321.729 484.273 -304.603 504.675 -292.369C530.076 -277.18 552.212 -270.044 580.878 -263.825C635.25 -251.796 687.275 -228.247 732.262 -195.727Z" stroke="url(#paint37_linear)" stroke-width="1.0366" stroke-linecap="round" stroke-linejoin="round"/>
<path d="M738.485 -204.291C923.33 -71.0503 964.338 195.532 831.826 379.643C698.497 564.67 431.431 605.754 247.403 472.819C202.212 440.197 163.651 398.4 134.782 350.691C105.811 302.777 93.2635 253.64 79.696 200.222C73.7794 176.775 60.1099 170.76 44.8081 154.245C23.3858 131.104 38.0754 101.744 54.3972 80.1322C81.7362 43.8402 119.99 17.5387 147.942 -17.9376C170.894 -47.0935 156.817 -77.1669 146.513 -108.769C138.659 -132.93 121.521 -176.562 156.511 -186.451C191.5 -196.339 233.631 -177.785 269.335 -178.193C308.201 -178.703 329.42 -204.8 350.842 -234.466C371.346 -262.908 396.033 -318.977 432.553 -329.987C459.994 -338.245 487.945 -315.715 509.164 -301.851C533.544 -285.948 555.375 -280.137 583.326 -273.918C639.126 -261.685 692.172 -237.626 738.485 -204.291Z" stroke="url(#paint38_linear)" stroke-width="0.9024" stroke-linecap="round" stroke-linejoin="round"/>
<path d="M744.606 -212.853C934.143 -76.2486 976.172 196.96 840.191 385.76C703.598 575.477 429.595 617.682 241.282 481.383C145.8 412.265 94.3858 314.807 69.393 201.854C64.1904 178.305 51.8471 173.717 35.0152 159.241C12.3687 139.77 26.3442 110.716 40.9319 90.4293C70.1071 49.8558 112.748 20.9037 141.923 -19.4659C165.08 -51.6801 145.187 -85.4234 132.946 -118.249C123.459 -143.633 104.281 -192.056 144.065 -200.824C183.034 -209.489 226.389 -190.731 265.459 -189.202C304.223 -187.673 325.136 -209.999 346.66 -240.072C360.635 -259.543 373.183 -280.034 386.954 -299.505C398.176 -315.306 412.151 -337.326 431.431 -343.953C458.566 -353.229 486.109 -329.986 506.716 -315.408C533.239 -296.753 556.497 -290.738 587.509 -283.806C644.125 -271.165 697.783 -246.596 744.606 -212.853Z" stroke="url(#paint39_linear)" stroke-width="0.7683" stroke-linecap="round" stroke-linejoin="round"/>
<path d="M750.828 -221.315C944.956 -81.448 988.107 198.591 848.759 391.978C708.8 586.283 428.065 629.507 235.059 489.946C138.25 419.911 82.7561 319.089 58.9875 203.586C53.9889 179.426 43.4817 175.96 25.3237 162.809C-0.995198 143.746 17.5709 113.061 32.8726 92.6718C63.578 51.5885 107.443 21.0054 136.414 -21.3012C159.775 -55.3504 133.15 -94.3948 119.888 -127.221C108.565 -155.153 90.2029 -205.411 133.762 -213.873C173.444 -221.62 217.615 -204.596 256.991 -200.518C297.796 -196.338 319.218 -212.751 342.681 -245.068C358.187 -266.476 371.55 -289.311 386.546 -311.025C397.563 -326.826 411.437 -349.967 430.513 -357.307C458.566 -368.012 487.843 -340.895 508.347 -325.807C534.462 -306.54 557.109 -301.34 588.12 -294.51C646.675 -281.563 702.271 -256.281 750.828 -221.315Z" stroke="url(#paint40_linear)" stroke-width="0.6341" stroke-linecap="round" stroke-linejoin="round"/>
<path d="M757.052 -229.878C955.974 -86.4431 1000.04 199.917 857.329 398.197C713.901 597.395 426.433 641.333 228.837 498.408C130.702 427.455 71.2291 323.166 48.5826 205.218C43.5841 179.018 33.4849 176.775 13.2867 163.013C-13.4403 144.867 9.61427 111.531 24.3039 92.9777C56.8455 51.8944 108.973 17.9472 133.558 -28.845C151.614 -63.3019 119.991 -105.099 107.035 -135.988C94.9978 -164.838 79.186 -213.975 122.235 -224.577C163.753 -234.771 210.373 -217.339 251.381 -211.834C293.818 -206.125 316.362 -219.684 341.151 -254.14C356.759 -275.854 370.02 -299.098 385.016 -321.219C396.033 -337.53 409.805 -361.181 428.983 -369.133C458.668 -381.468 488.864 -350.987 510.388 -334.88C537.523 -314.593 562.21 -311.229 594.241 -303.889C652.898 -290.432 708.392 -264.845 757.052 -229.878Z" stroke="url(#paint41_linear)" stroke-width="0.5" stroke-linecap="round" stroke-linejoin="round"/>
</g>
<defs>
<linearGradient id="paint0_linear" x1="482.08" y1="152.124" x2="503.752" y2="116.452" gradientUnits="userSpaceOnUse">
<stop stop-color="#8900EF"/>
<stop offset="1" stop-color="#4EFEF6"/>
</linearGradient>
<linearGradient id="paint1_linear" x1="474.544" y1="159.653" x2="511.313" y2="108.883" gradientUnits="userSpaceOnUse">
<stop stop-color="#8900EF"/>
<stop offset="1" stop-color="#4EFEF6"/>
</linearGradient>
<linearGradient id="paint2_linear" x1="470.343" y1="169.463" x2="515.496" y2="99.074" gradientUnits="userSpaceOnUse">
<stop stop-color="#8900EF"/>
<stop offset="1" stop-color="#4EFEF6"/>
</linearGradient>
<linearGradient id="paint3_linear" x1="471.053" y1="181.041" x2="505.597" y2="85.9622" gradientUnits="userSpaceOnUse">
<stop stop-color="#8900EF"/>
<stop offset="1" stop-color="#4EFEF6"/>
</linearGradient>
<linearGradient id="paint4_linear" x1="456.101" y1="185.085" x2="529.724" y2="83.4286" gradientUnits="userSpaceOnUse">
<stop stop-color="#8900EF"/>
<stop offset="1" stop-color="#4EFEF6"/>
</linearGradient>
<linearGradient id="paint5_linear" x1="449.953" y1="193.563" x2="535.861" y2="74.9434" gradientUnits="userSpaceOnUse">
<stop stop-color="#8900EF"/>
<stop offset="1" stop-color="#4EFEF6"/>
</linearGradient>
<linearGradient id="paint6_linear" x1="443.816" y1="202.046" x2="542.032" y2="66.4319" gradientUnits="userSpaceOnUse">
<stop stop-color="#8900EF"/>
<stop offset="1" stop-color="#4EFEF6"/>
</linearGradient>
<linearGradient id="paint7_linear" x1="437.831" y1="210.635" x2="548.398" y2="57.9678" gradientUnits="userSpaceOnUse">
<stop stop-color="#8900EF"/>
<stop offset="1" stop-color="#4EFEF6"/>
</linearGradient>
<linearGradient id="paint8_linear" x1="431.892" y1="219.258" x2="554.715" y2="49.6666" gradientUnits="userSpaceOnUse">
<stop stop-color="#8900EF"/>
<stop offset="1" stop-color="#4EFEF6"/>
</linearGradient>
<linearGradient id="paint9_linear" x1="425.364" y1="227.453" x2="560.396" y2="41.0045" gradientUnits="userSpaceOnUse">
<stop stop-color="#8900EF"/>
<stop offset="1" stop-color="#4EFEF6"/>
</linearGradient>
<linearGradient id="paint10_linear" x1="417.851" y1="234.942" x2="565.159" y2="31.5423" gradientUnits="userSpaceOnUse">
<stop stop-color="#8900EF"/>
<stop offset="1" stop-color="#4EFEF6"/>
</linearGradient>
<linearGradient id="paint11_linear" x1="408.632" y1="241.176" x2="568.212" y2="20.8325" gradientUnits="userSpaceOnUse">
<stop stop-color="#8900EF"/>
<stop offset="1" stop-color="#4EFEF6"/>
</linearGradient>
<linearGradient id="paint12_linear" x1="400.373" y1="248.119" x2="572.231" y2="10.8226" gradientUnits="userSpaceOnUse">
<stop stop-color="#8900EF"/>
<stop offset="1" stop-color="#4EFEF6"/>
</linearGradient>
<linearGradient id="paint13_linear" x1="392.105" y1="255.052" x2="576.239" y2="0.805382" gradientUnits="userSpaceOnUse">
<stop stop-color="#8900EF"/>
<stop offset="1" stop-color="#4EFEF6"/>
</linearGradient>
<linearGradient id="paint14_linear" x1="384.198" y1="262.241" x2="580.606" y2="-8.95332" gradientUnits="userSpaceOnUse">
<stop stop-color="#8900EF"/>
<stop offset="1" stop-color="#4EFEF6"/>
</linearGradient>
<linearGradient id="paint15_linear" x1="376.565" y1="269.635" x2="585.249" y2="-18.5102" gradientUnits="userSpaceOnUse">
<stop stop-color="#8900EF"/>
<stop offset="1" stop-color="#4EFEF6"/>
</linearGradient>
<linearGradient id="paint16_linear" x1="369.535" y1="277.464" x2="590.495" y2="-27.6314" gradientUnits="userSpaceOnUse">
<stop stop-color="#8900EF"/>
<stop offset="1" stop-color="#4EFEF6"/>
</linearGradient>
<linearGradient id="paint17_linear" x1="363.17" y1="285.775" x2="596.407" y2="-36.2716" gradientUnits="userSpaceOnUse">
<stop stop-color="#8900EF"/>
<stop offset="1" stop-color="#4EFEF6"/>
</linearGradient>
<linearGradient id="paint18_linear" x1="357.486" y1="294.578" x2="602.998" y2="-44.4182" gradientUnits="userSpaceOnUse">
<stop stop-color="#8900EF"/>
<stop offset="1" stop-color="#4EFEF6"/>
</linearGradient>
<linearGradient id="paint19_linear" x1="352.578" y1="303.944" x2="610.366" y2="-52.0021" gradientUnits="userSpaceOnUse">
<stop stop-color="#8900EF"/>
<stop offset="1" stop-color="#4EFEF6"/>
</linearGradient>
<linearGradient id="paint20_linear" x1="348.378" y1="313.824" x2="618.442" y2="-59.0731" gradientUnits="userSpaceOnUse">
<stop stop-color="#8900EF"/>
<stop offset="1" stop-color="#4EFEF6"/>
</linearGradient>
<linearGradient id="paint21_linear" x1="344.78" y1="324.144" x2="627.124" y2="-65.7087" gradientUnits="userSpaceOnUse">
<stop stop-color="#8900EF"/>
<stop offset="1" stop-color="#4EFEF6"/>
</linearGradient>
<linearGradient id="paint22_linear" x1="341.603" y1="334.764" x2="636.225" y2="-72.0423" gradientUnits="userSpaceOnUse">
<stop stop-color="#8900EF"/>
<stop offset="1" stop-color="#4EFEF6"/>
</linearGradient>
<linearGradient id="paint23_linear" x1="338.595" y1="345.511" x2="645.499" y2="-78.253" gradientUnits="userSpaceOnUse">
<stop stop-color="#8900EF"/>
<stop offset="1" stop-color="#4EFEF6"/>
</linearGradient>
<linearGradient id="paint24_linear" x1="334.912" y1="355.771" x2="654.097" y2="-84.951" gradientUnits="userSpaceOnUse">
<stop stop-color="#8900EF"/>
<stop offset="1" stop-color="#4EFEF6"/>
</linearGradient>
<linearGradient id="paint25_linear" x1="328.266" y1="363.884" x2="659.733" y2="-93.7966" gradientUnits="userSpaceOnUse">
<stop stop-color="#8900EF"/>
<stop offset="1" stop-color="#4EFEF6"/>
</linearGradient>
<linearGradient id="paint26_linear" x1="319.594" y1="370.532" x2="663.344" y2="-104.108" gradientUnits="userSpaceOnUse">
<stop stop-color="#8900EF"/>
<stop offset="1" stop-color="#4EFEF6"/>
</linearGradient>
<linearGradient id="paint27_linear" x1="311.289" y1="377.443" x2="667.319" y2="-114.154" gradientUnits="userSpaceOnUse">
<stop stop-color="#8900EF"/>
<stop offset="1" stop-color="#4EFEF6"/>
</linearGradient>
<linearGradient id="paint28_linear" x1="303.88" y1="385.003" x2="672.191" y2="-123.553" gradientUnits="userSpaceOnUse">
<stop stop-color="#8900EF"/>
<stop offset="1" stop-color="#4EFEF6"/>
</linearGradient>
<linearGradient id="paint29_linear" x1="297.012" y1="392.955" x2="677.606" y2="-132.559" gradientUnits="userSpaceOnUse">
<stop stop-color="#8900EF"/>
<stop offset="1" stop-color="#4EFEF6"/>
</linearGradient>
<linearGradient id="paint30_linear" x1="291.176" y1="401.656" x2="684.053" y2="-140.818" gradientUnits="userSpaceOnUse">
<stop stop-color="#8900EF"/>
<stop offset="1" stop-color="#4EFEF6"/>
</linearGradient>
<linearGradient id="paint31_linear" x1="286.084" y1="410.899" x2="691.246" y2="-148.537" gradientUnits="userSpaceOnUse">
<stop stop-color="#8900EF"/>
<stop offset="1" stop-color="#4EFEF6"/>
</linearGradient>
<linearGradient id="paint32_linear" x1="281.508" y1="420.513" x2="698.954" y2="-155.885" gradientUnits="userSpaceOnUse">
<stop stop-color="#8900EF"/>
<stop offset="1" stop-color="#4EFEF6"/>
</linearGradient>
<linearGradient id="paint33_linear" x1="277.68" y1="430.671" x2="707.41" y2="-162.69" gradientUnits="userSpaceOnUse">
<stop stop-color="#8900EF"/>
<stop offset="1" stop-color="#4EFEF6"/>
</linearGradient>
<linearGradient id="paint34_linear" x1="268.531" y1="436.975" x2="710.547" y2="-173.349" gradientUnits="userSpaceOnUse">
<stop stop-color="#8900EF"/>
<stop offset="1" stop-color="#4EFEF6"/>
</linearGradient>
<linearGradient id="paint35_linear" x1="258.706" y1="442.788" x2="713.007" y2="-184.498" gradientUnits="userSpaceOnUse">
<stop stop-color="#8900EF"/>
<stop offset="1" stop-color="#4EFEF6"/>
</linearGradient>
<linearGradient id="paint36_linear" x1="248.375" y1="448.237" x2="714.959" y2="-196.012" gradientUnits="userSpaceOnUse">
<stop stop-color="#8900EF"/>
<stop offset="1" stop-color="#4EFEF6"/>
</linearGradient>
<linearGradient id="paint37_linear" x1="237.849" y1="453.537" x2="716.713" y2="-207.665" gradientUnits="userSpaceOnUse">
<stop stop-color="#8900EF"/>
<stop offset="1" stop-color="#4EFEF6"/>
</linearGradient>
<linearGradient id="paint38_linear" x1="227.299" y1="458.82" x2="718.442" y2="-219.338" gradientUnits="userSpaceOnUse">
<stop stop-color="#8900EF"/>
<stop offset="1" stop-color="#4EFEF6"/>
</linearGradient>
<linearGradient id="paint39_linear" x1="217.215" y1="464.44" x2="720.637" y2="-230.672" gradientUnits="userSpaceOnUse">
<stop stop-color="#8900EF"/>
<stop offset="1" stop-color="#4EFEF6"/>
</linearGradient>
<linearGradient id="paint40_linear" x1="208.106" y1="470.768" x2="723.808" y2="-241.299" gradientUnits="userSpaceOnUse">
<stop stop-color="#8900EF"/>
<stop offset="1" stop-color="#4EFEF6"/>
</linearGradient>
<linearGradient id="paint41_linear" x1="200.212" y1="477.974" x2="728.192" y2="-251.047" gradientUnits="userSpaceOnUse">
<stop stop-color="#8900EF"/>
<stop offset="1" stop-color="#4EFEF6"/>
</linearGradient>
</defs>
</svg>
